<svg width="48" height="48" viewBox="0 0 48 48" fill="none" xmlns="http://www.w3.org/2000/svg">
<path opacity="0.15" d="M9.06995 45.79C9.06995 45.9948 9.41991 46.1977 10.0999 46.387C10.7798 46.5762 11.7764 46.7482 13.0328 46.8931C14.2892 47.0379 15.7807 47.1528 17.4222 47.2312C19.0638 47.3096 20.8232 47.35 22.5999 47.35C24.3767 47.35 26.1361 47.3096 27.7777 47.2312C29.4192 47.1528 30.9107 47.0379 32.1671 46.8931C33.4235 46.7482 34.4201 46.5762 35.1 46.387C35.78 46.1977 36.1299 45.9948 36.1299 45.79C36.1299 45.5851 35.78 45.3823 35.1 45.193C34.4201 45.0037 33.4235 44.8318 32.1671 44.6869C30.9107 44.542 29.4192 44.4271 27.7777 44.3487C26.1361 44.2703 24.3767 44.23 22.5999 44.23C20.8232 44.23 19.0638 44.2703 17.4222 44.3487C15.7807 44.4271 14.2892 44.542 13.0328 44.6869C11.7764 44.8318 10.7798 45.0037 10.0999 45.193C9.41991 45.3823 9.06995 45.5851 9.06995 45.79Z" fill="#45413C"/>
<path d="M38.18 19.8601C42.12 13.5101 40.88 5.60005 35.4 2.20005C29.92 -1.19995 22.28 1.20005 18.34 7.55005C16.7016 10.1639 15.9089 13.2194 16.07 16.3C16.17 21.65 18.07 26.51 15.63 30.51L13.87 33.35L17.04 35.35L18.81 32.51C21.29 28.51 26.51 28.1 31.35 25.81C34.1823 24.573 36.5664 22.496 38.18 19.8601ZM18.33 29.7001C18.8696 27.6492 19.0955 25.5285 19 23.41C19.6455 24.0942 20.3707 24.6985 21.16 25.21C21.9695 25.6885 22.832 26.071 23.73 26.35C21.772 27.1893 19.9516 28.3187 18.33 29.7001ZM22.6 22.83C18.43 20.25 17.6 14.0701 20.72 9.03005C23.84 3.99005 29.72 2.03005 33.93 4.58005C38.14 7.13005 38.93 13.34 35.8 18.38C32.67 23.42 26.76 25.42 22.6 22.83Z" fill="#FF8A14"/>
<path d="M18.45 10.2901C22.4 3.93005 30 1.54005 35.52 4.94005C36.8718 5.80523 38.0155 6.95848 38.8695 8.31728C39.7235 9.67608 40.2667 11.2069 40.46 12.8001C40.658 10.7403 40.2917 8.66557 39.4003 6.79822C38.5089 4.93086 37.126 3.34133 35.4 2.20005C29.92 -1.19995 22.28 1.20005 18.34 7.55005C16.7016 10.1639 15.9089 13.2194 16.07 16.3C16.07 16.88 16.07 17.45 16.15 18.01C16.2134 15.2775 17.0076 12.6117 18.45 10.2901Z" fill="#FFAA54"/>
<path d="M38.18 19.8601C42.12 13.5101 40.88 5.60005 35.4 2.20005C29.92 -1.19995 22.28 1.20005 18.34 7.55005C16.7016 10.1639 15.9089 13.2194 16.07 16.3C16.17 21.65 18.07 26.51 15.63 30.51L13.87 33.35L17.04 35.35L18.81 32.51C21.29 28.51 26.51 28.1 31.35 25.81C34.1823 24.573 36.5664 22.496 38.18 19.8601ZM18.33 29.7001C18.8696 27.6492 19.0955 25.5285 19 23.41C19.6455 24.0942 20.3707 24.6985 21.16 25.21C21.9695 25.6885 22.832 26.071 23.73 26.35C21.772 27.1893 19.9516 28.3187 18.33 29.7001ZM22.6 22.83C18.43 20.25 17.6 14.0701 20.72 9.03005C23.84 3.99005 29.72 2.03005 33.93 4.58005C38.14 7.13005 38.93 13.34 35.8 18.38C32.67 23.42 26.76 25.42 22.6 22.83Z" stroke="#45413C" stroke-width="1.01" stroke-linecap="round" stroke-linejoin="round"/>
<path d="M15.993 30.818L18.363 32.288C18.4669 32.3524 18.557 32.4366 18.6283 32.5359C18.6996 32.6351 18.7506 32.7474 18.7785 32.8664C18.8063 32.9853 18.8105 33.1086 18.7907 33.2292C18.7709 33.3497 18.7275 33.4652 18.663 33.569L12.01 44.293L8.05005 41.836L14.7 31.12C14.8301 30.9106 15.0379 30.7613 15.278 30.7051C15.518 30.6488 15.7705 30.6902 15.98 30.82L15.993 30.818Z" fill="#87898C"/>
<path d="M17.19 31.57L16 30.82C15.7854 30.7041 15.5358 30.6706 15.2983 30.7258C15.0607 30.7811 14.8515 30.9213 14.71 31.12L8.05005 41.84L10.05 43.08L17.19 31.57Z" fill="#BDBEC0"/>
<path d="M15.993 30.818L18.363 32.288C18.4669 32.3524 18.557 32.4366 18.6283 32.5359C18.6996 32.6351 18.7506 32.7474 18.7785 32.8664C18.8063 32.9853 18.8105 33.1086 18.7907 33.2292C18.7709 33.3497 18.7275 33.4652 18.663 33.569L12.01 44.293L8.05005 41.836L14.7 31.12C14.8301 30.9106 15.0379 30.7613 15.278 30.7051C15.518 30.6488 15.7705 30.6902 15.98 30.82L15.993 30.818Z" stroke="#45413C" stroke-width="1.01" stroke-linecap="round" stroke-linejoin="round"/>
<path d="M8.39696 40.403L13.156 43.356L11.922 45.344L7.16296 42.392L8.39696 40.403Z" fill="#87898C"/>
<path d="M9.66005 43.18L10.1 42.47C10.1944 42.3185 10.3277 42.1949 10.486 42.1123C10.6442 42.0296 10.8217 41.9909 11 42L9.24005 40.9C9.02774 40.7706 8.7728 40.7305 8.53102 40.7886C8.28925 40.8467 8.08034 40.9982 7.95005 41.21L7.71005 41.6C7.57929 41.8084 7.53639 42.06 7.59074 42.2999C7.64509 42.5398 7.79226 42.7484 8.00005 42.88L9.57005 43.88C9.51397 43.6435 9.54597 43.3947 9.66005 43.18Z" fill="#BDBEC0"/>
<path d="M33.93 4.57995L22.6 22.83M29.68 3.44995L19.7 19.53M36.82 7.87995L26.84 23.9599M20.97 8.62995L36.05 17.99M24.78 4.94995L37.65 12.94M18.87 14.47L31.74 22.4599M8.39696 40.403L13.156 43.3559L11.922 45.344L7.16296 42.3919L8.39696 40.403Z" stroke="#45413C" stroke-width="1.01" stroke-linecap="round" stroke-linejoin="round"/>
<path d="M37.55 33.9999C37.776 34.7044 37.788 35.4602 37.5844 36.1715C37.3808 36.8828 36.9708 37.5177 36.4063 37.996C35.8418 38.4742 35.1481 38.7743 34.4131 38.8582C33.678 38.9421 32.9345 38.8062 32.2767 38.4675C31.6189 38.1288 31.0764 37.6026 30.7177 36.9555C30.359 36.3084 30.2003 35.5694 30.2617 34.8321C30.323 34.0948 30.6017 33.3923 31.0625 32.8134C31.5232 32.2345 32.1453 31.8052 32.85 31.5799C33.7942 31.2809 34.8184 31.3675 35.699 31.8209C36.5795 32.2743 37.245 33.0577 37.55 33.9999Z" fill="#9CEB60"/>
<path d="M32.86 33.61C33.7989 33.3072 34.8195 33.3886 35.6985 33.8365C36.5774 34.2845 37.2432 35.0624 37.55 36V36.1C37.7648 35.396 37.7648 34.6439 37.55 33.94C37.2338 33.0249 36.5751 32.2682 35.7124 31.8288C34.8498 31.3894 33.8503 31.3016 32.9243 31.584C31.9983 31.8663 31.2178 32.4968 30.747 33.3427C30.2762 34.1886 30.1518 35.1842 30.4 36.12C30.5706 35.5309 30.8846 34.9932 31.3139 34.5552C31.7432 34.1172 32.2744 33.7924 32.86 33.61Z" fill="#C8FFA1"/>
<path d="M37.55 33.9999C37.776 34.7044 37.788 35.4602 37.5844 36.1715C37.3808 36.8828 36.9708 37.5177 36.4063 37.996C35.8418 38.4742 35.1481 38.7743 34.4131 38.8582C33.678 38.9421 32.9345 38.8062 32.2767 38.4675C31.6189 38.1288 31.0764 37.6026 30.7177 36.9555C30.359 36.3084 30.2003 35.5694 30.2617 34.8321C30.323 34.0948 30.6017 33.3923 31.0625 32.8134C31.5232 32.2345 32.1453 31.8052 32.85 31.5799C33.7942 31.2809 34.8184 31.3675 35.699 31.8209C36.5795 32.2743 37.245 33.0577 37.55 33.9999Z" stroke="#45413C" stroke-width="1.01" stroke-linecap="round" stroke-linejoin="round"/>
<path d="M35.39 31.64C35.1043 32.6166 35.0802 33.6511 35.32 34.64C35.6972 35.6017 36.3216 36.4468 37.13 37.09M30.84 33.09C31.6459 33.7314 32.27 34.5726 32.65 35.53C32.8884 36.5185 32.8677 37.5518 32.59 38.53" stroke="#45413C" stroke-width="1.01" stroke-linecap="round" stroke-linejoin="round"/>
</svg>
