<svg width="48" height="48" viewBox="0 0 48 48" fill="none" xmlns="http://www.w3.org/2000/svg">
<path opacity="0.15" d="M2.55005 44.5C2.55005 44.8978 4.44647 45.2794 7.82213 45.5607C11.1978 45.842 15.7762 46 20.55 46C25.3239 46 29.9023 45.842 33.278 45.5607C36.6536 45.2794 38.55 44.8978 38.55 44.5C38.55 44.1022 36.6536 43.7206 33.278 43.4393C29.9023 43.158 25.3239 43 20.55 43C15.7762 43 11.1978 43.158 7.82213 43.4393C4.44647 43.7206 2.55005 44.1022 2.55005 44.5Z" fill="#45413C"/>
<path d="M8.74003 28.8199L8.00003 27.0499C7.84059 26.6865 7.55622 26.3923 7.19848 26.2205C6.84074 26.0487 6.43329 26.0107 6.04998 26.1135C5.66668 26.2163 5.33287 26.453 5.10907 26.7807C4.88526 27.1084 4.78627 27.5055 4.83003 27.8999C5.48003 32.8999 4.28003 34.5199 1.83003 37.3199C1.58728 37.5881 1.44457 37.9318 1.42602 38.2931C1.40747 38.6543 1.51422 39.0109 1.72822 39.3025C1.94222 39.5941 2.25035 39.8029 2.60052 39.8935C2.95069 39.9841 3.32142 39.9511 3.65003 39.7999C4.73537 39.4562 5.73726 38.8903 6.59188 38.1382C7.44651 37.386 8.13515 36.4642 8.61396 35.4313C9.09278 34.3984 9.35126 33.2771 9.37297 32.1389C9.39467 31.0006 9.17912 29.8703 8.74003 28.8199Z" fill="#FFE500"/>
<path d="M5.00003 29.5999C5.13461 29.316 5.34701 29.0761 5.61254 28.9081C5.87807 28.7402 6.18582 28.651 6.50003 28.651C6.81423 28.651 7.12198 28.7402 7.38751 28.9081C7.65304 29.0761 7.86544 29.316 8.00003 29.5999L8.74003 31.3699C8.97533 31.9322 9.14641 32.5193 9.25003 33.1199C9.46314 31.66 9.27295 30.1696 8.70003 28.8099L8.00003 27.0499C7.84058 26.6865 7.55622 26.3923 7.19848 26.2205C6.84074 26.0487 6.43329 26.0107 6.04998 26.1135C5.66667 26.2163 5.33286 26.453 5.10906 26.7807C4.88526 27.1084 4.78626 27.5055 4.83003 27.8999C4.91003 28.5199 5.00003 29.0799 5.00003 29.5999ZM2.14003 39.6099C4.26003 37.1199 5.37003 35.4699 5.00003 31.2799C4.78003 33.8399 3.66003 35.2799 1.90003 37.2799C1.75786 37.4439 1.65147 37.6357 1.58765 37.8431C1.52383 38.0506 1.504 38.269 1.52941 38.4845C1.55482 38.7001 1.62492 38.9079 1.73523 39.0948C1.84553 39.2817 1.99362 39.4435 2.17003 39.5699L2.14003 39.6099Z" fill="#FFF48C"/>
<path d="M6.08003 26.0799L5.35003 24.3499M7.07003 23.6299L3.64003 25.0699M8.74003 28.8199L8.00003 27.0499C7.84059 26.6865 7.55622 26.3922 7.19848 26.2204C6.84074 26.0486 6.43329 26.0107 6.04998 26.1135C5.66668 26.2163 5.33287 26.453 5.10907 26.7807C4.88526 27.1084 4.78627 27.5055 4.83003 27.8999C5.48003 32.8999 4.28003 34.5199 1.83003 37.3199C1.58728 37.588 1.44457 37.9318 1.42602 38.293C1.40747 38.6543 1.51422 39.0108 1.72822 39.3024C1.94222 39.594 2.25035 39.8028 2.60052 39.8934C2.95069 39.9841 3.32142 39.951 3.65003 39.7999C4.73537 39.4562 5.73726 38.8902 6.59188 38.1381C7.44651 37.386 8.13515 36.4641 8.61396 35.4312C9.09278 34.3984 9.35126 33.2771 9.37297 32.1388C9.39467 31.0006 9.17912 29.8703 8.74003 28.8199Z" stroke="#45413C" stroke-linecap="round" stroke-linejoin="round"/>
<path d="M30.69 19.3701C30.5646 19.5874 30.4832 19.8273 30.4505 20.0761C30.4178 20.3249 30.4345 20.5777 30.4995 20.82C30.5645 21.0624 30.6766 21.2896 30.8294 21.4886C30.9822 21.6877 31.1727 21.8547 31.39 21.9801C31.6074 22.1055 31.8473 22.1869 32.0961 22.2195C32.3448 22.2522 32.5976 22.2356 32.84 22.1706C33.0823 22.1056 33.3095 21.9935 33.5086 21.8407C33.7076 21.6879 33.8746 21.4974 34 21.2801C34.4563 20.4785 35.192 19.8732 36.0664 19.5799C36.9408 19.2866 37.8927 19.3258 38.74 19.6901C40.4438 20.4199 41.8296 21.7363 42.646 23.4003C43.4625 25.0644 43.6555 26.9659 43.19 28.7601C42.3508 31.9942 40.462 34.8583 37.8198 36.9034C35.1775 38.9484 31.9312 40.0587 28.59 40.0601H20.59L19.89 44.0001H28.67C32.9183 43.9998 37.0446 42.5795 40.393 39.9649C43.7414 37.3503 46.1197 33.6915 47.15 29.5701C47.8005 26.966 47.5317 24.2171 46.3893 21.7883C45.2468 19.3594 43.3008 17.3996 40.88 16.2401C39.0985 15.3883 37.062 15.2373 35.1744 15.8171C33.2868 16.3969 31.6861 17.6651 30.69 19.3701Z" fill="#BF8256"/>
<path d="M43.35 27.9101C43.312 28.1961 43.2586 28.4798 43.19 28.7601C42.3508 31.9942 40.462 34.8583 37.8197 36.9034C35.1775 38.9484 31.9312 40.0587 28.59 40.0601H20.59L20.22 42.2401H28.63C31.9568 42.235 35.1886 41.13 37.8221 39.097C40.4556 37.064 42.3428 34.2173 43.19 31.0001C43.448 29.9909 43.5024 28.9405 43.35 27.9101ZM30.69 19.3701C30.5098 19.6872 30.4227 20.0486 30.4386 20.413C30.4545 20.7774 30.5729 21.1299 30.78 21.4301C31.7917 19.7665 33.3855 18.5383 35.2519 17.9839C37.1183 17.4295 39.1242 17.5885 40.88 18.4301C42.6894 19.2952 44.2444 20.6136 45.3938 22.2572C46.5433 23.9007 47.2481 25.8136 47.44 27.8101C47.6577 25.4426 47.146 23.0651 45.9733 20.9969C44.8007 18.9287 43.0234 17.2688 40.88 16.2401C39.0985 15.3883 37.0619 15.2373 35.1743 15.8171C33.2868 16.3969 31.6861 17.6651 30.69 19.3701Z" fill="#DEA47A"/>
<path d="M30.7 19.3701C30.5559 19.5872 30.4578 19.8316 30.4117 20.0882C30.3657 20.3447 30.3726 20.6079 30.432 20.8617C30.4915 21.1155 30.6023 21.3544 30.7576 21.5637C30.9128 21.7731 31.1093 21.9484 31.3349 22.079C31.5604 22.2095 31.8104 22.2925 32.0692 22.3229C32.3281 22.3532 32.5904 22.3303 32.8401 22.2555C33.0898 22.1806 33.3215 22.0555 33.5209 21.8877C33.7204 21.72 33.8835 21.5132 34 21.2801C34.4563 20.4785 35.192 19.8732 36.0664 19.5799C36.9408 19.2866 37.8927 19.3258 38.74 19.6901C40.4438 20.4199 41.8296 21.7362 42.646 23.4003C43.4625 25.0643 43.6555 26.9659 43.19 28.7601C42.3508 31.9942 40.462 34.8583 37.8198 36.9033C35.1775 38.9484 31.9312 40.0587 28.59 40.0601H20.59L19.89 44.0001H28.67C32.9183 43.9998 37.0446 42.5795 40.393 39.9649C43.7414 37.3503 46.1197 33.6915 47.15 29.5701C47.8005 26.9659 47.5317 24.2171 46.3893 21.7883C45.2468 19.3594 43.3008 17.3996 40.88 16.2401C39.1 15.3888 37.065 15.2382 35.1791 15.8181C33.2932 16.3979 31.6943 17.6658 30.7 19.3701Z" stroke="#45413C" stroke-linecap="round" stroke-linejoin="round"/>
<path d="M31.16 30.5999C30.3937 26.6086 28.262 23.0085 25.1308 20.4174C21.9996 17.8264 18.0642 16.406 14 16.3999V28.3999L9.71004 27.6399C9.41726 27.5423 9.10685 27.5093 8.80009 27.5429C8.49333 27.5766 8.19748 27.6762 7.93283 27.835C7.66818 27.9937 7.44099 28.2078 7.26684 28.4626C7.0927 28.7173 6.97571 29.0067 6.92392 29.311C6.87212 29.6152 6.88673 29.927 6.96675 30.2251C7.04677 30.5231 7.19031 30.8003 7.38752 31.0377C7.58473 31.2751 7.83094 31.467 8.10927 31.6003C8.38761 31.7336 8.69148 31.8051 9.00004 31.8099L14 32.5799V34.9999C13.4805 35.5237 13.0753 36.1497 12.8102 36.8383C12.5452 37.5268 12.4259 38.2629 12.46 38.9999L12.52 39.9999H11.73C11.3247 39.9912 10.9226 40.0732 10.5531 40.2399C10.1836 40.4066 9.85598 40.6539 9.5943 40.9635C9.33261 41.2731 9.14344 41.6373 9.04062 42.0294C8.9378 42.4216 8.92394 42.8317 9.00004 43.2299C9.05283 43.4536 9.18109 43.6523 9.36322 43.7926C9.54536 43.9328 9.77025 44.006 10 43.9999H24.14C25.135 44.0012 26.1204 43.8064 27.04 43.4265C27.9596 43.0467 28.7953 42.4893 29.4993 41.7862C30.2033 41.0832 30.7618 40.2482 31.1429 39.3291C31.5239 38.41 31.72 37.4249 31.72 36.4299C31.719 34.4732 31.5315 32.521 31.16 30.5999Z" fill="#BF8256"/>
<path d="M14 26.2599C16.1527 26.2595 18.2605 25.6436 20.0748 24.4849C21.8891 23.3261 23.3343 21.6728 24.24 19.7199C21.2612 17.563 17.6777 16.4011 14 16.3999V26.2599Z" fill="#915E3A"/>
<path d="M31.16 30.5999C30.3937 26.6086 28.262 23.0085 25.1308 20.4174C21.9996 17.8264 18.0642 16.406 14 16.3999V28.3999L9.71004 27.6399C9.41726 27.5423 9.10685 27.5093 8.80009 27.5429C8.49333 27.5766 8.19748 27.6762 7.93283 27.835C7.66818 27.9937 7.44099 28.2078 7.26684 28.4626C7.0927 28.7173 6.97571 29.0067 6.92392 29.311C6.87212 29.6152 6.88673 29.927 6.96675 30.2251C7.04677 30.5231 7.19031 30.8003 7.38752 31.0377C7.58473 31.2751 7.83094 31.467 8.10927 31.6003C8.38761 31.7336 8.69148 31.8051 9.00004 31.8099L14 32.5799V34.9999C13.4805 35.5237 13.0753 36.1497 12.8102 36.8383C12.5452 37.5268 12.4259 38.2629 12.46 38.9999L12.52 39.9999H11.73C11.3247 39.9912 10.9226 40.0732 10.5531 40.2399C10.1836 40.4066 9.85598 40.6539 9.5943 40.9635C9.33261 41.2731 9.14344 41.6373 9.04062 42.0294C8.9378 42.4216 8.92394 42.8317 9.00004 43.2299C9.05283 43.4536 9.18109 43.6523 9.36322 43.7926C9.54536 43.9328 9.77025 44.006 10 43.9999H24.14C25.135 44.0012 26.1204 43.8064 27.04 43.4265C27.9596 43.0467 28.7953 42.4893 29.4993 41.7862C30.2033 41.0832 30.7618 40.2482 31.1429 39.3291C31.5239 38.41 31.72 37.4249 31.72 36.4299C31.719 34.4732 31.5315 32.521 31.16 30.5999Z" stroke="#45413C" stroke-linecap="round" stroke-linejoin="round"/>
<path d="M22.52 9.16991H22.28C21.8451 7.29192 20.7868 5.61664 19.2777 4.41715C17.7686 3.21766 15.8978 2.5647 13.97 2.5647C12.0423 2.5647 10.1715 3.21766 8.66238 4.41715C7.15331 5.61664 6.09503 7.29192 5.66004 9.16991C5.58347 9.16439 5.50661 9.16439 5.43004 9.16991C4.99846 9.16991 4.57113 9.25508 4.17252 9.42054C3.77392 9.586 3.41189 9.8285 3.10719 10.1341C2.80248 10.4398 2.56108 10.8025 2.39684 11.2016C2.23259 11.6007 2.14872 12.0283 2.15004 12.4599V13.1199C2.15004 13.5506 2.23488 13.9772 2.39971 14.3751C2.56455 14.7731 2.80615 15.1346 3.11073 15.4392C3.41531 15.7438 3.77689 15.9854 4.17484 16.1502C4.57279 16.3151 4.9993 16.3999 5.43004 16.3999H5.66004C6.09503 18.2779 7.15331 19.9532 8.66238 21.1527C10.1715 22.3522 12.0423 23.0051 13.97 23.0051C15.8978 23.0051 17.7686 22.3522 19.2777 21.1527C20.7868 19.9532 21.8451 18.2779 22.28 16.3999H22.52C23.39 16.3999 24.2242 16.0543 24.8393 15.4392C25.4545 14.8241 25.8 13.9898 25.8 13.1199V12.4599C25.8014 12.0283 25.7175 11.6007 25.5532 11.2016C25.389 10.8025 25.1476 10.4398 24.8429 10.1341C24.5382 9.8285 24.1762 9.586 23.7776 9.42054C23.379 9.25508 22.9516 9.16991 22.52 9.16991Z" fill="#BF8256"/>
<path d="M22.52 9.16999C22.4435 9.16447 22.3666 9.16447 22.29 9.16999C21.8508 7.29436 20.7902 5.62233 19.2807 4.42552C17.7712 3.2287 15.9014 2.57739 13.975 2.57739C12.0487 2.57739 10.1788 3.2287 8.66935 4.42552C7.15984 5.62233 6.09932 7.29436 5.66004 9.16999C5.58347 9.16447 5.50661 9.16447 5.43004 9.16999C4.99846 9.16999 4.57113 9.25516 4.17252 9.42062C3.77392 9.58608 3.41189 9.82858 3.10719 10.1342C2.80248 10.4398 2.56108 10.8026 2.39684 11.2017C2.23259 11.6008 2.14872 12.0284 2.15004 12.46V13.12C2.15623 13.46 2.21354 13.7971 2.32004 14.12C2.53124 13.4602 2.9459 12.8843 3.50459 12.4747C4.06328 12.0651 4.7373 11.8429 5.43004 11.84C5.50661 11.8345 5.58347 11.8345 5.66004 11.84C6.09932 9.96436 7.15984 8.29233 8.66935 7.09552C10.1788 5.8987 12.0487 5.24739 13.975 5.24739C15.9014 5.24739 17.7712 5.8987 19.2807 7.09552C20.7902 8.29233 21.8508 9.96436 22.29 11.84C22.3666 11.8345 22.4435 11.8345 22.52 11.84C23.2128 11.8429 23.8868 12.0651 24.4455 12.4747C25.0042 12.8843 25.4188 13.4602 25.63 14.12C25.7365 13.7971 25.7938 13.46 25.8 13.12V12.46C25.8014 12.0284 25.7175 11.6008 25.5532 11.2017C25.389 10.8026 25.1476 10.4398 24.8429 10.1342C24.5382 9.82858 24.1762 9.58608 23.7776 9.42062C23.379 9.25516 22.9516 9.16999 22.52 9.16999Z" fill="#DEA47A"/>
<path d="M22.52 9.16991H22.28C21.8451 7.29192 20.7868 5.61664 19.2777 4.41715C17.7686 3.21766 15.8978 2.5647 13.97 2.5647C12.0423 2.5647 10.1715 3.21766 8.66238 4.41715C7.15331 5.61664 6.09503 7.29192 5.66004 9.16991C5.58347 9.16439 5.50661 9.16439 5.43004 9.16991C4.99846 9.16991 4.57113 9.25508 4.17252 9.42054C3.77392 9.586 3.41189 9.8285 3.10719 10.1341C2.80248 10.4398 2.56108 10.8025 2.39684 11.2016C2.23259 11.6007 2.14872 12.0283 2.15004 12.4599V13.1199C2.15004 13.5506 2.23488 13.9772 2.39971 14.3751C2.56455 14.7731 2.80615 15.1346 3.11073 15.4392C3.41531 15.7438 3.77689 15.9854 4.17484 16.1502C4.57279 16.3151 4.9993 16.3999 5.43004 16.3999H5.66004C6.09503 18.2779 7.15331 19.9532 8.66238 21.1527C10.1715 22.3522 12.0423 23.0051 13.97 23.0051C15.8978 23.0051 17.7686 22.3522 19.2777 21.1527C20.7868 19.9532 21.8451 18.2779 22.28 16.3999H22.52C23.39 16.3999 24.2242 16.0543 24.8393 15.4392C25.4545 14.8241 25.8 13.9898 25.8 13.1199V12.4599C25.8014 12.0283 25.7175 11.6007 25.5532 11.2016C25.389 10.8025 25.1476 10.4398 24.8429 10.1341C24.5382 9.8285 24.1762 9.586 23.7776 9.42054C23.379 9.25508 22.9516 9.16991 22.52 9.16991Z" stroke="#45413C" stroke-linecap="round" stroke-linejoin="round"/>
<path d="M18.56 15.07C19.1011 15.5867 19.5323 16.2073 19.8279 16.8946C20.1234 17.5819 20.2772 18.3218 20.28 19.07C20.2763 19.5224 20.2158 19.9726 20.1 20.41C19.2481 21.2903 18.2166 21.9768 17.0756 22.4228C15.9347 22.8687 14.711 23.0637 13.488 22.9945C12.2649 22.9252 11.0711 22.5933 9.9878 22.0214C8.90449 21.4494 7.95708 20.6509 7.21001 19.68C7.17132 19.4821 7.14792 19.2815 7.14001 19.08C7.1447 18.3312 7.30032 17.5911 7.59757 16.9038C7.89482 16.2165 8.32759 15.5962 8.87001 15.08C8.17511 14.6046 7.6503 13.9195 7.37215 13.1248C7.094 12.3301 7.07707 11.4674 7.32382 10.6624C7.57056 9.85735 8.06809 9.15225 8.7438 8.64993C9.41951 8.1476 10.2381 7.87434 11.08 7.87C12.0504 7.86542 12.9878 8.22185 13.71 8.87C14.1099 8.50215 14.5816 8.221 15.0954 8.04421C15.6092 7.86742 16.154 7.79882 16.6956 7.84271C17.2372 7.88661 17.7639 8.04205 18.2425 8.29927C18.7211 8.5565 19.1414 8.90994 19.4768 9.33739C19.8123 9.76484 20.0557 10.2571 20.1918 10.7831C20.3278 11.3092 20.3536 11.8577 20.2675 12.3942C20.1814 12.9307 19.9853 13.4436 19.6915 13.9006C19.3976 14.3577 19.0124 14.749 18.56 15.05V15.07Z" fill="#FFDCD1" stroke="#45413C" stroke-linecap="round" stroke-linejoin="round"/>
<path d="M18.56 11.8799C18.5457 12.1388 18.4548 12.3877 18.2989 12.5949C18.1431 12.8022 17.9292 12.9585 17.6844 13.0441C17.4396 13.1297 17.1749 13.1408 16.9238 13.0758C16.6727 13.0108 16.4466 12.8728 16.2741 12.6792C16.1015 12.4856 15.9903 12.2451 15.9545 11.9883C15.9187 11.7314 15.96 11.4697 16.0731 11.2363C16.1862 11.003 16.366 10.8084 16.5897 10.6773C16.8135 10.5462 17.0711 10.4844 17.33 10.4999C17.5017 10.5088 17.6699 10.5517 17.8249 10.6261C17.9799 10.7004 18.1186 10.8048 18.233 10.9332C18.3474 11.0615 18.4352 11.2113 18.4913 11.3738C18.5475 11.5363 18.5708 11.7083 18.56 11.8799ZM12 11.8799C11.9858 12.1384 11.8953 12.387 11.74 12.5941C11.5846 12.8013 11.3713 12.9577 11.1271 13.0437C10.8829 13.1297 10.6186 13.1414 10.3677 13.0774C10.1169 13.0133 9.89061 12.8763 9.71754 12.6837C9.54448 12.4911 9.43237 12.2515 9.39539 11.9952C9.35841 11.7389 9.3982 11.4775 9.50975 11.2438C9.62129 11.0101 9.79959 10.8147 10.0221 10.6823C10.2446 10.5499 10.5014 10.4864 10.76 10.4999C10.9321 10.5088 11.1008 10.5517 11.2563 10.6259C11.4118 10.7001 11.5512 10.8044 11.6664 10.9326C11.7816 11.0607 11.8703 11.2104 11.9276 11.373C11.9848 11.5355 12.0094 11.7078 12 11.8799Z" fill="#45413C"/>
<path d="M11.35 18.3701C11.6786 18.7589 12.0831 19.0765 12.5388 19.3035C12.9945 19.5305 13.4917 19.662 14 19.6901C14.5045 19.6577 14.9973 19.5241 15.4491 19.2973C15.9009 19.0705 16.3025 18.7552 16.63 18.3701M13.97 28.3501L17.49 28.9701M21.43 25.0001L23 29.4001C23.1769 29.8983 23.2218 30.4339 23.1302 30.9546C23.0386 31.4753 22.8136 31.9634 22.4772 32.3713C22.1409 32.7791 21.7045 33.0929 21.2108 33.282C20.7171 33.4711 20.1828 33.529 19.66 33.4501L14 32.5801M22.92 39.2601C22.9672 38.4969 22.8531 37.7323 22.5849 37.0162C22.3168 36.3001 21.9007 35.6486 21.3638 35.1042C20.8269 34.5597 20.1812 34.1346 19.469 33.8565C18.7567 33.5783 17.9938 33.4535 17.23 33.4901C16.0011 33.567 14.8471 34.1066 14 35.0001" stroke="#45413C" stroke-linecap="round" stroke-linejoin="round"/>
</svg>
