<svg width="48" height="48" viewBox="0 0 48 48" fill="none" xmlns="http://www.w3.org/2000/svg">
<path d="M4 21.5C4 26.8043 6.10714 31.8914 9.85786 35.6421C13.6086 39.3929 18.6957 41.5 24 41.5C29.3043 41.5 34.3914 39.3929 38.1421 35.6421C41.8929 31.8914 44 26.8043 44 21.5C44 16.1957 41.8929 11.1086 38.1421 7.35786C34.3914 3.60714 29.3043 1.5 24 1.5C18.6957 1.5 13.6086 3.60714 9.85786 7.35786C6.10714 11.1086 4 16.1957 4 21.5Z" fill="#FFE500"/>
<path d="M24 1.5C20.0444 1.5 16.1776 2.67298 12.8886 4.87061C9.59962 7.06824 7.03617 10.1918 5.52242 13.8463C4.00867 17.5009 3.6126 21.5222 4.3843 25.4018C5.15601 29.2814 7.06082 32.8451 9.85787 35.6421C12.6549 38.4392 16.2186 40.344 20.0982 41.1157C23.9778 41.8874 27.9992 41.4913 31.6537 39.9776C35.3082 38.4638 38.4318 35.9004 40.6294 32.6114C42.827 29.3224 44 25.4556 44 21.5C44 16.1957 41.8929 11.1086 38.1421 7.35786C34.3914 3.60714 29.3043 1.5 24 1.5ZM24 38.5C20.3905 38.5 16.862 37.4297 13.8609 35.4243C10.8597 33.419 8.52051 30.5687 7.13921 27.234C5.75791 23.8992 5.3965 20.2298 6.10068 16.6896C6.80486 13.1494 8.543 9.89761 11.0953 7.3453C13.6476 4.79299 16.8995 3.05485 20.4396 2.35067C23.9798 1.64649 27.6492 2.0079 30.984 3.3892C34.3187 4.7705 37.169 7.10965 39.1743 10.1108C41.1797 13.112 42.25 16.6405 42.25 20.25C42.25 25.0902 40.3272 29.7322 36.9047 33.1547C33.4822 36.5772 28.8402 38.5 24 38.5Z" fill="#EBCB00"/>
<path d="M18 5.5C18 5.89782 18.6321 6.27936 19.7574 6.56066C20.8826 6.84196 22.4087 7 24 7C25.5913 7 27.1174 6.84196 28.2426 6.56066C29.3679 6.27936 30 5.89782 30 5.5C30 5.10218 29.3679 4.72064 28.2426 4.43934C27.1174 4.15804 25.5913 4 24 4C22.4087 4 20.8826 4.15804 19.7574 4.43934C18.6321 4.72064 18 5.10218 18 5.5Z" fill="#FFF48C"/>
<path opacity="0.15" d="M8 45.5C8 45.8978 9.68571 46.2794 12.6863 46.5607C15.6869 46.842 19.7565 47 24 47C28.2435 47 32.3131 46.842 35.3137 46.5607C38.3143 46.2794 40 45.8978 40 45.5C40 45.1022 38.3143 44.7206 35.3137 44.4393C32.3131 44.158 28.2435 44 24 44C19.7565 44 15.6869 44.158 12.6863 44.4393C9.68571 44.7206 8 45.1022 8 45.5Z" fill="#45413C"/>
<path d="M4 21.5C4 26.8043 6.10714 31.8914 9.85786 35.6421C13.6086 39.3929 18.6957 41.5 24 41.5C29.3043 41.5 34.3914 39.3929 38.1421 35.6421C41.8929 31.8914 44 26.8043 44 21.5C44 16.1957 41.8929 11.1086 38.1421 7.35786C34.3914 3.60714 29.3043 1.5 24 1.5C18.6957 1.5 13.6086 3.60714 9.85786 7.35786C6.10714 11.1086 4 16.1957 4 21.5Z" stroke="#45413C" stroke-linecap="round" stroke-linejoin="round"/>
<path d="M38.5 26.5C38.5 27.33 37.38 28 36 28C34.62 28 33.5 27.33 33.5 26.5C33.5 25.67 34.62 25 36 25C37.38 25 38.5 25.67 38.5 26.5ZM9.5 26.5C9.5 27.33 10.62 28 12 28C13.38 28 14.5 27.33 14.5 26.5C14.5 25.67 13.38 25 12 25C10.62 25 9.5 25.67 9.5 26.5Z" fill="#FFAA54"/>
<path d="M14.5 20.5C14.5 20.6978 14.4414 20.8911 14.3315 21.0556C14.2216 21.22 14.0654 21.3482 13.8827 21.4239C13.7 21.4996 13.4989 21.5194 13.3049 21.4808C13.1109 21.4422 12.9327 21.347 12.7929 21.2071C12.653 21.0673 12.5578 20.8891 12.5192 20.6951C12.4806 20.5011 12.5004 20.3 12.5761 20.1173C12.6518 19.9346 12.78 19.7784 12.9444 19.6685C13.1089 19.5586 13.3022 19.5 13.5 19.5C13.7652 19.5 14.0196 19.6054 14.2071 19.7929C14.3946 19.9804 14.5 20.2348 14.5 20.5ZM33.5 20.5C33.5 20.6978 33.5586 20.8911 33.6685 21.0556C33.7784 21.22 33.9346 21.3482 34.1173 21.4239C34.3 21.4996 34.5011 21.5194 34.6951 21.4808C34.8891 21.4422 35.0673 21.347 35.2071 21.2071C35.347 21.0673 35.4422 20.8891 35.4808 20.6951C35.5194 20.5011 35.4996 20.3 35.4239 20.1173C35.3482 19.9346 35.22 19.7784 35.0556 19.6685C34.8911 19.5586 34.6978 19.5 34.5 19.5C34.2348 19.5 33.9804 19.6054 33.7929 19.7929C33.6054 19.9804 33.5 20.2348 33.5 20.5Z" fill="#45413C" stroke="#45413C" stroke-linecap="round" stroke-linejoin="round"/>
<path d="M24 38.5C26.6318 38.5574 29.1954 37.6605 31.2173 35.9749C33.2392 34.2894 34.5829 31.929 35 29.33C35.0172 29.1755 34.9981 29.0191 34.9443 28.8733C34.8905 28.7275 34.8034 28.5962 34.69 28.49C34.5674 28.3811 34.4223 28.3004 34.265 28.2538C34.1078 28.2071 33.9422 28.1956 33.78 28.22C27.3082 29.2599 20.7119 29.2599 14.24 28.22C14.0778 28.1956 13.9123 28.2071 13.755 28.2538C13.5978 28.3004 13.4527 28.3811 13.33 28.49C13.2166 28.5962 13.1296 28.7275 13.0758 28.8733C13.022 29.0191 13.0029 29.1755 13.02 29.33C13.4367 31.9256 14.7775 34.2831 16.7952 35.9682C18.8129 37.6534 21.3717 38.5525 24 38.5Z" fill="#FFB0CA" stroke="#45413C" stroke-linecap="round" stroke-linejoin="round"/>
<path d="M24.0001 33.5001C21.215 33.4252 18.4511 34.004 15.9301 35.1901C18.0802 37.3117 20.9794 38.5012 24.0001 38.5012C27.0207 38.5012 29.9199 37.3117 32.0701 35.1901C29.549 34.004 26.7851 33.4252 24.0001 33.5001Z" fill="#FF87AF" stroke="#45413C" stroke-linecap="round" stroke-linejoin="round"/>
</svg>
