<svg width="48" height="48" viewBox="0 0 48 48" fill="none" xmlns="http://www.w3.org/2000/svg">
<path d="M13.55 19.1801H17.84V41.5001H13.55V19.1801Z" fill="#DEBB7E"/>
<path d="M13.55 34.7601C13.9523 34.9549 14.3931 35.0574 14.84 35.0601C15.4278 35.0604 16.0027 34.8881 16.4934 34.5645C16.984 34.241 17.3689 33.7804 17.6 33.2401L17.84 33.3001V19.1801H13.55V34.7601Z" fill="#B89558"/>
<path d="M13.55 19.1801H17.84V41.5001H13.55V19.1801Z" stroke="#45413C" stroke-linecap="round" stroke-linejoin="round"/>
<path d="M15.16 9.40003C12.516 9.39896 9.97026 10.4021 8.0377 12.2066C6.10514 14.011 4.93003 16.4821 4.75004 19.12C3.82622 19.4826 2.99588 20.0484 2.32064 20.7757C1.6454 21.503 1.14259 22.373 0.849509 23.3211C0.556429 24.2693 0.480605 25.2712 0.627662 26.2527C0.77472 27.2341 1.14089 28.1699 1.69899 28.9905C2.25709 29.8111 2.99281 30.4955 3.85156 30.9929C4.7103 31.4904 5.67003 31.788 6.65954 31.8639C7.64905 31.9397 8.64293 31.7918 9.56745 31.431C10.492 31.0703 11.3234 30.506 12 29.78C13.033 30.1185 14.1131 30.2906 15.2 30.29C17.9143 30.206 20.4892 29.0688 22.3795 27.1191C24.2697 25.1695 25.3268 22.5606 25.3268 19.845C25.3268 17.1295 24.2697 14.5206 22.3795 12.5709C20.4892 10.6213 17.9143 9.48402 15.2 9.40003H15.16Z" fill="#6DD627"/>
<path d="M4.74997 21.9001C4.91894 19.3152 6.04371 16.8858 7.90532 15.0846C9.76693 13.2835 12.2322 12.2395 14.8212 12.1559C17.4101 12.0723 19.9376 12.955 21.9115 14.6324C23.8854 16.3097 25.1646 18.6615 25.5 21.2301C25.5638 20.7694 25.5972 20.3051 25.6 19.8401C25.5824 17.1454 24.5236 14.5619 22.645 12.6299C20.7665 10.698 18.2136 9.56724 15.5205 9.47424C12.8274 9.38124 10.2026 10.3332 8.19523 12.1309C6.18785 13.9287 4.95335 16.433 4.74997 19.1201C3.26765 19.6794 2.03738 20.7556 1.28581 22.1503C0.534231 23.5451 0.311969 25.1644 0.659967 26.7101C0.884644 25.6301 1.37684 24.6237 2.09143 23.7834C2.80601 22.943 3.72013 22.2954 4.74997 21.9001Z" fill="#9CEB60"/>
<path d="M15.16 9.40003C12.516 9.39896 9.97026 10.4021 8.0377 12.2066C6.10514 14.011 4.93003 16.4821 4.75004 19.12C3.82622 19.4826 2.99588 20.0484 2.32064 20.7757C1.6454 21.503 1.14259 22.373 0.849509 23.3211C0.556429 24.2693 0.480605 25.2712 0.627662 26.2527C0.77472 27.2341 1.14089 28.1699 1.69899 28.9905C2.25709 29.8111 2.99281 30.4955 3.85156 30.9929C4.7103 31.4904 5.67003 31.788 6.65954 31.8639C7.64905 31.9397 8.64293 31.7918 9.56745 31.431C10.492 31.0703 11.3234 30.506 12 29.78C13.033 30.1185 14.1131 30.2906 15.2 30.29C17.9143 30.206 20.4892 29.0688 22.3795 27.1191C24.2697 25.1695 25.3268 22.5606 25.3268 19.845C25.3268 17.1295 24.2697 14.5206 22.3795 12.5709C20.4892 10.6213 17.9143 9.48402 15.2 9.40003H15.16Z" stroke="#45413C" stroke-linecap="round" stroke-linejoin="round"/>
<path d="M40.7 24.52L29 17.7C28.737 17.5482 28.4387 17.4683 28.135 17.4683C27.8313 17.4683 27.533 17.5482 27.27 17.7L15.59 24.52C15.2492 24.7203 15.0019 25.0477 14.9025 25.4303C14.8031 25.8128 14.8598 26.2192 15.06 26.56C15.2602 26.9008 15.5877 27.1481 15.9702 27.2475C16.3528 27.3469 16.7592 27.2903 17.1 27.09L28.1 20.65L39.2 27.09C39.5392 27.2643 39.9323 27.302 40.2984 27.1952C40.6645 27.0883 40.9757 26.8452 41.1679 26.5159C41.3601 26.1865 41.4188 25.796 41.3317 25.4247C41.2447 25.0534 41.0186 24.7296 40.7 24.52Z" fill="#FF6242"/>
<path d="M15.12 26.64C15.246 26.461 15.4056 26.3082 15.59 26.19L27.28 19.38C27.5412 19.2231 27.8402 19.1402 28.145 19.1402C28.4497 19.1402 28.7487 19.2231 29.01 19.38L40.7 26.19C40.8865 26.3053 41.0467 26.4587 41.17 26.64C41.2192 26.583 41.2596 26.519 41.29 26.45C41.4541 26.1134 41.4844 25.727 41.3749 25.3689C41.2655 25.0107 41.0243 24.7074 40.7 24.52L29 17.7C28.737 17.5482 28.4386 17.4683 28.135 17.4683C27.8313 17.4683 27.533 17.5482 27.27 17.7L15.59 24.52C15.2692 24.7107 15.031 25.0141 14.9219 25.371C14.8128 25.7279 14.8406 26.1126 15 26.45C15.034 26.5169 15.0742 26.5805 15.12 26.64Z" fill="#FF866E"/>
<path d="M40.7 24.52L29 17.7C28.737 17.5482 28.4387 17.4683 28.135 17.4683C27.8313 17.4683 27.533 17.5482 27.27 17.7L15.59 24.52C15.2492 24.7203 15.0019 25.0477 14.9025 25.4303C14.8031 25.8128 14.8598 26.2192 15.06 26.56C15.2602 26.9008 15.5877 27.1481 15.9702 27.2475C16.3528 27.3469 16.7592 27.2903 17.1 27.09L28.1 20.65L39.2 27.09C39.5392 27.2643 39.9323 27.302 40.2984 27.1952C40.6645 27.0883 40.9757 26.8452 41.1679 26.5159C41.3601 26.1865 41.4188 25.796 41.3317 25.4247C41.2447 25.0534 41.0186 24.7296 40.7 24.52Z" stroke="#45413C" stroke-linecap="round" stroke-linejoin="round"/>
<path opacity="0.15" d="M5.40002 42.5C5.40002 42.697 5.94398 42.892 7.00084 43.074C8.05769 43.256 9.60675 43.4214 11.5596 43.5607C13.5124 43.6999 15.8307 43.8104 18.3822 43.8858C20.9337 43.9612 23.6683 44 26.43 44C29.1917 44 31.9264 43.9612 34.4779 43.8858C37.0293 43.8104 39.3477 43.6999 41.3005 43.5607C43.2533 43.4214 44.8024 43.256 45.8592 43.074C46.9161 42.892 47.46 42.697 47.46 42.5C47.46 42.1022 45.2444 41.7206 41.3005 41.4393C37.3566 41.158 32.0075 41 26.43 41C20.8525 41 15.5035 41.158 11.5596 41.4393C7.61568 41.7206 5.40002 42.1022 5.40002 42.5Z" fill="#45413C"/>
<path d="M38.45 41.5H17.84V26.66L28.15 20.65L38.45 26.66V41.5Z" fill="#FFFACF"/>
<path d="M28.15 20.65L17.84 26.66V29.06L28.15 23.05L38.45 29.06V26.66L28.15 20.65Z" fill="#FFF48C"/>
<path d="M38.45 41.5H17.84V26.66L28.15 20.65L38.45 26.66V41.5Z" stroke="#45413C" stroke-linecap="round" stroke-linejoin="round"/>
<path d="M20.4201 39.35H28.5801C28.8081 39.35 29.0269 39.4406 29.1882 39.6019C29.3495 39.7631 29.4401 39.9819 29.4401 40.21V41.5H19.5601V40.21C19.5601 39.9819 19.6507 39.7631 19.8119 39.6019C19.9732 39.4406 20.192 39.35 20.4201 39.35Z" fill="#E0E0E0" stroke="#45413C" stroke-linecap="round" stroke-linejoin="round"/>
<path d="M21.71 29.05H27.29C27.5181 29.05 27.7368 29.1407 27.8981 29.3019C28.0594 29.4632 28.15 29.682 28.15 29.91V39.35H20.85V29.91C20.85 29.682 20.9406 29.4632 21.1019 29.3019C21.2631 29.1407 21.4819 29.05 21.71 29.05Z" fill="#BF8256"/>
<path d="M27.29 29.05H21.71C21.4819 29.05 21.2632 29.1407 21.1019 29.3019C20.9406 29.4632 20.85 29.682 20.85 29.91V31.63C20.8487 31.5167 20.87 31.4043 20.9128 31.2994C20.9555 31.1944 21.0188 31.0991 21.0989 31.0189C21.1791 30.9388 21.2744 30.8755 21.3793 30.8328C21.4843 30.79 21.5967 30.7687 21.71 30.7701H27.29C27.5181 30.7701 27.7369 30.8607 27.8981 31.0219C28.0594 31.1832 28.15 31.402 28.15 31.63V29.91C28.1474 29.6828 28.056 29.4655 27.8953 29.3048C27.7346 29.1441 27.5173 29.0526 27.29 29.05Z" fill="#915E3A"/>
<path d="M21.71 29.05H27.29C27.5181 29.05 27.7368 29.1407 27.8981 29.3019C28.0594 29.4632 28.15 29.682 28.15 29.91V39.35H20.85V29.91C20.85 29.682 20.9406 29.4632 21.1019 29.3019C21.2631 29.1407 21.4819 29.05 21.71 29.05Z" stroke="#45413C" stroke-linecap="round" stroke-linejoin="round"/>
<path d="M30.72 29.05H35.87V34.2001H30.72V29.05Z" fill="#00B8F0"/>
<path d="M35 29.05H31.58C31.3527 29.0526 31.1355 29.1441 30.9747 29.3048C30.814 29.4655 30.7226 29.6828 30.72 29.91V33.34C30.72 33.5681 30.8106 33.7869 30.9719 33.9482C31.1331 34.1094 31.3519 34.2001 31.58 34.2001H32.19L35.19 29.09C35.1301 29.0636 35.0654 29.05 35 29.05Z" fill="#4ACFFF"/>
<path d="M22.5699 30.77H26.4299V34.63H22.5699V30.77Z" fill="#00B8F0"/>
<path d="M25.57 30.77H23.42C23.3075 30.77 23.1962 30.7923 23.0924 30.8357C22.9886 30.879 22.8945 30.9425 22.8154 31.0225C22.7363 31.1025 22.6739 31.1974 22.6318 31.3017C22.5897 31.406 22.5687 31.5176 22.57 31.63V33.77C22.5687 33.8825 22.5897 33.9941 22.6318 34.0984C22.6739 34.2027 22.7363 34.2975 22.8154 34.3775C22.8945 34.4575 22.9886 34.521 23.0924 34.5644C23.1962 34.6077 23.3075 34.63 23.42 34.63H23.63L25.86 30.83C25.7685 30.7901 25.6698 30.7697 25.57 30.77Z" fill="#4ACFFF"/>
<path d="M30.7199 29.05H35.8699V34.2001H30.7199V29.05ZM22.5699 30.7701H26.4299V34.6301H22.5699V30.7701Z" stroke="#45413C" stroke-linecap="round" stroke-linejoin="round"/>
<path d="M46.6301 41.5C46.9924 41.2317 47.2608 40.8559 47.397 40.426C47.5331 39.9962 47.5299 39.5344 47.388 39.1064C47.2461 38.6784 46.9727 38.3062 46.6067 38.0429C46.2407 37.7796 45.8009 37.6386 45.35 37.64C44.8519 37.6409 44.3702 37.818 43.9901 38.14C43.8705 37.559 43.6187 37.0135 43.2542 36.5456C42.8897 36.0777 42.4223 35.7001 41.8883 35.4422C41.3542 35.1842 40.7679 35.0527 40.1748 35.058C39.5818 35.0633 38.9979 35.2052 38.4685 35.4727C37.9391 35.7401 37.4785 36.126 37.1224 36.6003C36.7663 37.0746 36.5243 37.6246 36.4152 38.2075C36.306 38.7905 36.3327 39.3908 36.4931 39.9618C36.6535 40.5328 36.9433 41.0591 37.3401 41.5H46.6301Z" fill="#6DD627"/>
<path d="M40.2 36.8C41.0912 36.7974 41.956 37.1024 42.6483 37.6635C43.3407 38.2247 43.8181 39.0076 44 39.88C44.3787 39.5544 44.8606 39.3737 45.36 39.37C45.7811 39.3625 46.1952 39.4789 46.5507 39.7047C46.9063 39.9305 47.1877 40.2557 47.36 40.64C47.4804 40.369 47.545 40.0765 47.55 39.78C47.55 39.4981 47.4943 39.219 47.3862 38.9588C47.278 38.6985 47.1195 38.4621 46.9197 38.2633C46.7199 38.0644 46.4828 37.907 46.222 37.8C45.9612 37.6931 45.6819 37.6387 45.4 37.64C44.9019 37.6409 44.4201 37.818 44.04 38.14C43.8366 37.212 43.299 36.3911 42.5295 35.8339C41.76 35.2767 40.8123 35.022 39.8672 35.1184C38.922 35.2147 38.0453 35.6554 37.404 36.3565C36.7628 37.0576 36.4019 37.97 36.39 38.92C36.3902 39.2102 36.4271 39.4992 36.5 39.78C36.6946 38.941 37.1648 38.1915 37.8356 37.6513C38.5063 37.111 39.3388 36.8113 40.2 36.8Z" fill="#9CEB60"/>
<path d="M46.6301 41.5C46.9924 41.2317 47.2608 40.8559 47.397 40.426C47.5331 39.9962 47.5299 39.5344 47.388 39.1064C47.2461 38.6784 46.9727 38.3062 46.6067 38.0429C46.2407 37.7796 45.8009 37.6386 45.35 37.64C44.8519 37.6409 44.3702 37.818 43.9901 38.14C43.8705 37.559 43.6187 37.0135 43.2542 36.5456C42.8897 36.0777 42.4223 35.7001 41.8883 35.4422C41.3542 35.1842 40.7679 35.0527 40.1748 35.058C39.5818 35.0633 38.9979 35.2052 38.4685 35.4727C37.9391 35.7401 37.4785 36.126 37.1224 36.6003C36.7663 37.0746 36.5243 37.6246 36.4152 38.2075C36.306 38.7905 36.3327 39.3908 36.4931 39.9618C36.6535 40.5328 36.9433 41.0591 37.3401 41.5H46.6301Z" stroke="#45413C" stroke-linecap="round" stroke-linejoin="round"/>
</svg>
