<svg width="400" height="400" viewBox="0 0 400 400" fill="none" xmlns="http://www.w3.org/2000/svg">
<path fill-rule="evenodd" clip-rule="evenodd" d="M149.333 106.849C-33.313 127.384 -41.223 252.474 138.667 275.531C146.978 276.596 157.155 277.883 161.284 278.391L168.79 279.314L169.284 303.117L169.778 326.92L214.222 292.359C238.667 273.351 258.667 256.989 258.667 256C258.667 255.011 238.667 238.649 214.222 219.641L169.778 185.08L169.28 208.294L168.783 231.508L158.614 230.34C114.17 225.237 73.024 211.579 59.659 197.495L54.43 191.983L60.245 185.983C103.148 141.719 300.841 141.956 339.792 186.318L345.15 192.421L340.131 197.714C334.182 203.985 316.718 213.058 300 218.562L288 222.512V246.565V270.618L294.624 269.375C380.118 253.336 418.057 192.558 369.823 148.909C332.872 115.47 236.377 97.063 149.333 106.849Z" fill="white"/>
</svg>
