<svg width="48" height="48" viewBox="0 0 48 48" fill="none" xmlns="http://www.w3.org/2000/svg">
<path opacity="0.15" d="M2.89001 42.23C2.89001 42.6994 5.12779 43.1496 9.11107 43.4815C13.0943 43.8135 18.4968 44 24.13 44C29.7632 44 35.1657 43.8135 39.149 43.4815C43.1322 43.1496 45.37 42.6994 45.37 42.23C45.37 41.7605 43.1322 41.3103 39.149 40.9784C35.1657 40.6464 29.7632 40.46 24.13 40.46C18.4968 40.46 13.0943 40.6464 9.11107 40.9784C5.12779 41.3103 2.89001 41.7605 2.89001 42.23Z" fill="#45413C"/>
<path d="M18.5 33.75C18.5 35.3817 18.0162 36.9767 17.1096 38.3335C16.2031 39.6902 14.9146 40.7476 13.4071 41.372C11.8997 41.9964 10.2409 42.1598 8.64051 41.8415C7.04017 41.5232 5.57016 40.7374 4.41637 39.5836C3.26259 38.4298 2.47685 36.9598 2.15853 35.3595C1.8402 33.7592 2.00357 32.1004 2.628 30.5929C3.25242 29.0854 4.30984 27.7969 5.66655 26.8904C7.02325 25.9839 8.61831 25.5 10.25 25.5C11.3334 25.5 12.4062 25.7134 13.4071 26.128C14.4081 26.5426 15.3176 27.1503 16.0836 27.9164C16.8497 28.6825 17.4574 29.5919 17.872 30.5929C18.2866 31.5938 18.5 32.6666 18.5 33.75Z" fill="#656769"/>
<path d="M10.25 27.86C12.2321 27.8633 14.147 28.5793 15.645 29.8772C17.1431 31.1752 18.1244 32.9685 18.41 34.93C18.4652 34.539 18.4953 34.1449 18.5 33.75C18.5 31.562 17.6308 29.4635 16.0836 27.9164C14.5365 26.3692 12.438 25.5 10.25 25.5C8.06196 25.5 5.96354 26.3692 4.41637 27.9164C2.86919 29.4635 2 31.562 2 33.75C2.00473 34.1449 2.03479 34.539 2.09 34.93C2.37556 32.9685 3.35693 31.1752 4.85498 29.8772C6.35303 28.5793 8.26787 27.8633 10.25 27.86Z" fill="#87898C"/>
<path d="M18.5 33.75C18.5 35.3817 18.0162 36.9767 17.1096 38.3335C16.2031 39.6902 14.9146 40.7476 13.4071 41.372C11.8997 41.9964 10.2409 42.1598 8.64051 41.8415C7.04017 41.5232 5.57016 40.7374 4.41637 39.5836C3.26259 38.4298 2.47685 36.9598 2.15853 35.3595C1.8402 33.7592 2.00357 32.1004 2.628 30.5929C3.25242 29.0854 4.30984 27.7969 5.66655 26.8904C7.02325 25.9839 8.61831 25.5 10.25 25.5C11.3334 25.5 12.4062 25.7134 13.4071 26.128C14.4081 26.5426 15.3176 27.1503 16.0836 27.9164C16.8497 28.6825 17.4574 29.5919 17.872 30.5929C18.2866 31.5938 18.5 32.6666 18.5 33.75Z" stroke="#45413C" stroke-linecap="round" stroke-linejoin="round"/>
<path d="M46.25 33.75C46.25 35.3817 45.7661 36.9767 44.8596 38.3335C43.9531 39.6902 42.6646 40.7476 41.1571 41.372C39.6497 41.9964 37.9909 42.1598 36.3905 41.8415C34.7902 41.5232 33.3202 40.7374 32.1664 39.5836C31.0126 38.4298 30.2269 36.9598 29.9085 35.3595C29.5902 33.7592 29.7536 32.1004 30.378 30.5929C31.0024 29.0854 32.0598 27.7969 33.4165 26.8904C34.7733 25.9839 36.3683 25.5 38 25.5C40.188 25.5 42.2865 26.3692 43.8336 27.9164C45.3808 29.4635 46.25 31.562 46.25 33.75Z" fill="#656769"/>
<path d="M38 27.86C39.9821 27.8633 41.897 28.5793 43.395 29.8772C44.8931 31.1752 45.8744 32.9685 46.16 34.93C46.2152 34.539 46.2453 34.1449 46.25 33.75C46.25 31.562 45.3808 29.4635 43.8336 27.9164C42.2865 26.3692 40.188 25.5 38 25.5C35.812 25.5 33.7135 26.3692 32.1664 27.9164C30.6192 29.4635 29.75 31.562 29.75 33.75C29.7547 34.1449 29.7848 34.539 29.84 34.93C30.1256 32.9685 31.1069 31.1752 32.605 29.8772C34.103 28.5793 36.0179 27.8633 38 27.86Z" fill="#87898C"/>
<path d="M46.25 33.75C46.25 35.3817 45.7661 36.9767 44.8596 38.3335C43.9531 39.6902 42.6646 40.7476 41.1571 41.372C39.6497 41.9964 37.9909 42.1598 36.3905 41.8415C34.7902 41.5232 33.3202 40.7374 32.1664 39.5836C31.0126 38.4298 30.2269 36.9598 29.9085 35.3595C29.5902 33.7592 29.7536 32.1004 30.378 30.5929C31.0024 29.0854 32.0598 27.7969 33.4165 26.8904C34.7733 25.9839 36.3683 25.5 38 25.5C40.188 25.5 42.2865 26.3692 43.8336 27.9164C45.3808 29.4635 46.25 31.562 46.25 33.75Z" stroke="#45413C" stroke-linecap="round" stroke-linejoin="round"/>
<path d="M43.3 33.7C43.3 34.7483 42.9891 35.773 42.4067 36.6445C41.8244 37.5161 40.9966 38.1954 40.0282 38.5966C39.0597 38.9977 37.9941 39.1027 36.966 38.8982C35.9379 38.6937 34.9935 38.1889 34.2523 37.4477C33.5111 36.7065 33.0063 35.7621 32.8018 34.734C32.5973 33.7059 32.7022 32.6403 33.1034 31.6718C33.5045 30.7034 34.1839 29.8756 35.0554 29.2932C35.927 28.7109 36.9517 28.4 38 28.4C39.4056 28.4 40.7537 28.9584 41.7476 29.9524C42.7416 30.9463 43.3 32.2944 43.3 33.7Z" fill="#E8F4FA"/>
<path d="M38 30.75C39.2002 30.7539 40.3638 31.1643 41.3008 31.9144C42.2379 32.6644 42.8932 33.7098 43.16 34.88C43.2526 34.4935 43.2996 34.0975 43.2999 33.7C43.2999 32.2944 42.7416 30.9463 41.7476 29.9524C40.7537 28.9584 39.4056 28.4 38 28.4C36.5943 28.4 35.2462 28.9584 34.2523 29.9524C33.2583 30.9463 32.7 32.2944 32.7 33.7C32.7003 34.0975 32.7473 34.4935 32.84 34.88C33.1067 33.7098 33.762 32.6644 34.6991 31.9144C35.6361 31.1643 36.7997 30.7539 38 30.75Z" fill="#C0DCEB"/>
<path d="M32.7 33.75H43.3M35.37 38.3L40.67 29.12M40.63 38.3L35.33 29.12M43.3 33.7C43.3 34.7483 42.9891 35.773 42.4067 36.6445C41.8244 37.5161 40.9966 38.1954 40.0282 38.5966C39.0597 38.9977 37.9941 39.1027 36.966 38.8982C35.9379 38.6937 34.9935 38.1889 34.2523 37.4477C33.5111 36.7065 33.0063 35.7621 32.8018 34.734C32.5973 33.7059 32.7022 32.6403 33.1034 31.6718C33.5045 30.7034 34.1839 29.8756 35.0554 29.2932C35.927 28.7109 36.9517 28.4 38 28.4C39.4056 28.4 40.7537 28.9584 41.7476 29.9524C42.7416 30.9463 43.3 32.2944 43.3 33.7Z" stroke="#45413C" stroke-linecap="round" stroke-linejoin="round"/>
<path d="M15.57 33.75C15.57 34.7982 15.2591 35.8229 14.6768 36.6945C14.0944 37.5661 13.2666 38.2454 12.2982 38.6465C11.3297 39.0477 10.2641 39.1526 9.23599 38.9481C8.2079 38.7436 7.26353 38.2388 6.52231 37.4976C5.78109 36.7564 5.27631 35.812 5.07181 34.7839C4.86731 33.7558 4.97227 32.6902 5.37341 31.7217C5.77456 30.7533 6.45387 29.9255 7.32545 29.3432C8.19703 28.7608 9.22173 28.45 10.27 28.45C10.966 28.45 11.6552 28.587 12.2982 28.8534C12.9412 29.1197 13.5255 29.5101 14.0176 30.0023C14.5098 30.4944 14.9002 31.0787 15.1665 31.7217C15.4329 32.3648 15.57 33.0539 15.57 33.75Z" fill="#E8F4FA"/>
<path d="M10.27 30.75C11.4747 30.7526 12.6427 31.1649 13.5822 31.919C14.5217 32.6731 15.1768 33.7243 15.44 34.9C15.5244 34.5224 15.568 34.1368 15.57 33.75C15.57 32.3443 15.0116 30.9962 14.0176 30.0023C13.0237 29.0083 11.6756 28.45 10.27 28.45C8.86432 28.45 7.51625 29.0083 6.52231 30.0023C5.52836 30.9962 4.96997 32.3443 4.96997 33.75C4.97198 34.1368 5.01557 34.5224 5.09997 34.9C5.36315 33.7243 6.01827 32.6731 6.95776 31.919C7.89725 31.1649 9.06525 30.7526 10.27 30.75Z" fill="#C0DCEB"/>
<path d="M15.57 33.75C15.57 34.7982 15.2591 35.8229 14.6768 36.6945C14.0944 37.5661 13.2666 38.2454 12.2982 38.6465C11.3297 39.0477 10.2641 39.1526 9.23599 38.9481C8.2079 38.7436 7.26353 38.2388 6.52231 37.4976C5.78109 36.7564 5.27631 35.812 5.07181 34.7839C4.86731 33.7558 4.97227 32.6902 5.37341 31.7217C5.77456 30.7533 6.45387 29.9255 7.32545 29.3432C8.19703 28.7608 9.22173 28.45 10.27 28.45C10.966 28.45 11.6552 28.587 12.2982 28.8534C12.9412 29.1197 13.5255 29.5101 14.0176 30.0023C14.5098 30.4944 14.9002 31.0787 15.1665 31.7217C15.4329 32.3648 15.57 33.0539 15.57 33.75ZM15.57 33.75H4.96997M7.61997 38.34L12.92 29.16M12.92 38.34L7.61997 29.16" stroke="#45413C" stroke-linecap="round" stroke-linejoin="round"/>
<path d="M30.8199 16.9299V19.0699H16.3299C16.3299 18.7799 16.3899 18.4999 16.3999 18.2099L16.6799 13.5699C16.6895 13.4092 16.6661 13.2482 16.611 13.0969C16.556 12.9455 16.4706 12.807 16.3601 12.6899C16.2496 12.5728 16.1162 12.4796 15.9683 12.416C15.8204 12.3523 15.661 12.3197 15.4999 12.3199H8.74995C8.43699 12.3199 8.13685 12.4443 7.91556 12.6656C7.69427 12.8869 7.56995 13.187 7.56995 13.4999C7.56995 13.8129 7.69427 14.113 7.91556 14.3343C8.13685 14.5556 8.43699 14.6799 8.74995 14.6799H13.6099C13.6913 14.6798 13.7719 14.6963 13.8467 14.7283C13.9215 14.7603 13.9891 14.8072 14.0452 14.8662C14.1013 14.9251 14.1449 14.9948 14.1732 15.0711C14.2015 15.1474 14.214 15.2287 14.2099 15.3099L14.0499 18.0799C13.7314 23.4232 12.0776 28.6013 9.23995 33.1399C9.13641 33.271 9.06186 33.4225 9.02122 33.5844C8.98059 33.7464 8.97479 33.9151 9.00421 34.0795C9.03364 34.2439 9.09762 34.4001 9.19192 34.538C9.28622 34.6758 9.4087 34.792 9.55125 34.879C9.69381 34.9659 9.8532 35.0216 10.0189 35.0424C10.1846 35.0632 10.3528 35.0486 10.5124 34.9995C10.672 34.9505 10.8194 34.8681 10.9448 34.7578C11.0702 34.6476 11.1708 34.512 11.2399 34.3599C13.2495 31.1212 14.7124 27.5738 15.5699 23.8599C15.5957 23.7571 15.6491 23.6633 15.7245 23.5887C15.7998 23.5141 15.8941 23.4616 15.9972 23.4369C16.1003 23.4121 16.2082 23.4161 16.3092 23.4484C16.4101 23.4807 16.5003 23.54 16.5699 23.6199L25.0199 34.4699C25.1316 34.6103 25.2729 34.7242 25.4336 34.8037C25.5944 34.8832 25.7707 34.9263 25.9499 34.9299H37.9999C38.1968 34.9303 38.3906 34.8814 38.5637 34.7877C38.7368 34.694 38.8837 34.5585 38.9911 34.3935C39.0984 34.2285 39.1628 34.0392 39.1783 33.843C39.1938 33.6468 39.16 33.4498 39.0799 33.2699L33.1799 19.9999V16.9299H30.8199ZM29.8199 22.2599L25.7199 31.4699L18.6499 22.3799C18.5826 22.2925 18.5411 22.1878 18.5302 22.0779C18.5194 21.968 18.5396 21.8573 18.5886 21.7583C18.6375 21.6593 18.7133 21.5761 18.8072 21.518C18.9012 21.46 19.0095 21.4295 19.1199 21.4299H29.2799C29.3784 21.4298 29.4753 21.4542 29.5618 21.5011C29.6484 21.5479 29.7218 21.6157 29.7755 21.6982C29.8292 21.7807 29.8614 21.8753 29.8691 21.9734C29.8769 22.0715 29.86 22.17 29.8199 22.2599ZM27.8199 32.5699L31.9999 23.1599L36.1799 32.5699H27.8199Z" fill="#6DD627" stroke="#45413C" stroke-linecap="round" stroke-linejoin="round"/>
<path d="M29 33.7C29 34.2933 28.8241 34.8733 28.4944 35.3667C28.1648 35.86 27.6962 36.2445 27.1481 36.4716C26.5999 36.6987 25.9967 36.7581 25.4147 36.6423C24.8328 36.5266 24.2982 36.2408 23.8787 35.8213C23.4591 35.4017 23.1734 34.8672 23.0576 34.2852C22.9419 33.7033 23.0013 33.1001 23.2284 32.5519C23.4554 32.0037 23.8399 31.5352 24.3333 31.2055C24.8266 30.8759 25.4067 30.7 26 30.7C26.7957 30.7 27.5587 31.016 28.1213 31.5786C28.6839 32.1412 29 32.9043 29 33.7Z" fill="#DAEDF7"/>
<path d="M26 32.57C26.6309 32.5725 27.245 32.7739 27.7548 33.1456C28.2647 33.5172 28.6444 34.0401 28.84 34.6399C28.9393 34.3362 28.9932 34.0194 29 33.7C29 32.9043 28.6839 32.1412 28.1213 31.5786C27.5587 31.016 26.7956 30.7 26 30.7C25.2044 30.7 24.4413 31.016 23.8787 31.5786C23.3161 32.1412 23 32.9043 23 33.7C23.0068 34.0194 23.0607 34.3362 23.16 34.6399C23.3556 34.0401 23.7353 33.5172 24.2452 33.1456C24.755 32.7739 25.3691 32.5725 26 32.57Z" fill="#E8F4FA"/>
<path d="M23 33.7C23 34.4956 23.3161 35.2587 23.8787 35.8213C24.4413 36.3839 25.2044 36.7 26 36.7C26.7956 36.7 27.5587 36.3839 28.1213 35.8213C28.6839 35.2587 29 34.4956 29 33.7C29 32.9043 28.6839 32.1412 28.1213 31.5786C27.5587 31.016 26.7956 30.7 26 30.7C25.2044 30.7 24.4413 31.016 23.8787 31.5786C23.3161 32.1412 23 32.9043 23 33.7Z" stroke="#45413C" stroke-linecap="round" stroke-linejoin="round"/>
<path d="M26.69 16.93H36.13C38.27 16.93 38.39 12.8 36.13 12.8C33.87 12.8 30.72 14.13 28.46 14C24.31 13.71 25.29 16.93 26.69 16.93Z" fill="#DEBB7E"/>
<path d="M28.46 15.38C30.72 15.45 33.87 14.75 36.13 14.75C36.4342 14.707 36.7444 14.7531 37.023 14.8826C37.3017 15.0122 37.5368 15.2197 37.7 15.48C37.98 14.29 37.49 12.8 36.13 12.8C33.87 12.8 30.72 14.13 28.46 13.98C25.82 13.81 25.26 15.04 25.55 15.98C25.79 15.61 26.61 15.31 28.46 15.38ZM36.13 16.93C36.2615 16.9295 36.3925 16.9127 36.52 16.88C36.3916 16.9078 36.2612 16.9245 36.13 16.93Z" fill="#F0D5A8"/>
<path d="M26.69 16.93H36.13C38.27 16.93 38.39 12.8 36.13 12.8C33.87 12.8 30.72 14.13 28.46 14C24.31 13.71 25.29 16.93 26.69 16.93Z" stroke="#45413C"/>
<path d="M9.67999 11.92H7.53999C6.47791 11.9289 5.44708 12.2805 4.60097 12.9225C3.75485 13.5645 3.13871 14.4626 2.84425 15.4831C2.54979 16.5036 2.59277 17.5919 2.9668 18.586C3.34082 19.58 4.02588 20.4268 4.91999 21L5.74999 21.52C5.92399 21.6264 6.11724 21.6975 6.3187 21.7292C6.52017 21.7608 6.7259 21.7525 6.92415 21.7047C7.1224 21.6569 7.3093 21.5705 7.47416 21.4504C7.63902 21.3304 7.77862 21.179 7.88499 21.005C7.99136 20.831 8.06242 20.6378 8.0941 20.4363C8.12579 20.2349 8.11748 20.0291 8.06966 19.8309C8.02184 19.6326 7.93544 19.4457 7.81539 19.2809C7.69534 19.116 7.54399 18.9764 7.36999 18.87L6.45999 18.33C6.10864 18.114 5.8376 17.789 5.68822 17.4046C5.53884 17.0201 5.51931 16.5974 5.63262 16.2008C5.74592 15.8042 5.98584 15.4556 6.31578 15.2081C6.64572 14.9606 7.04755 14.8278 7.45999 14.83H9.67999C9.99295 14.83 10.2931 14.7057 10.5144 14.4844C10.7357 14.2631 10.86 13.963 10.86 13.65V13.1C10.86 12.7871 10.7357 12.487 10.5144 12.2657C10.2931 12.0444 9.99295 11.92 9.67999 11.92Z" fill="#DEBB7E"/>
<path d="M9.67998 11.92H7.53998C6.22981 11.92 4.9733 12.4405 4.04687 13.3669C3.12044 14.2934 2.59998 15.5499 2.59998 16.86C2.60182 17.1551 2.62858 17.4495 2.67998 17.74C2.89857 16.6122 3.50341 15.5958 4.39043 14.8658C5.27744 14.1357 6.39116 13.7377 7.53998 13.74H9.67998C9.88359 13.7429 10.0829 13.7988 10.2583 13.9022C10.4337 14.0057 10.579 14.1532 10.68 14.33C10.7851 14.1512 10.8404 13.9475 10.84 13.74V13.1C10.84 12.7905 10.7184 12.4934 10.5015 12.2726C10.2845 12.0519 9.98945 11.9253 9.67998 11.92Z" fill="#F0D5A8"/>
<path d="M9.67999 11.92H7.53999C6.47791 11.9289 5.44708 12.2805 4.60097 12.9225C3.75485 13.5645 3.13871 14.4626 2.84425 15.4831C2.54979 16.5036 2.59277 17.5919 2.9668 18.586C3.34082 19.58 4.02588 20.4268 4.91999 21L5.74999 21.52C5.92399 21.6264 6.11724 21.6975 6.3187 21.7292C6.52017 21.7608 6.7259 21.7525 6.92415 21.7047C7.1224 21.6569 7.3093 21.5705 7.47416 21.4504C7.63902 21.3304 7.77862 21.179 7.88499 21.005C7.99136 20.831 8.06242 20.6378 8.0941 20.4363C8.12579 20.2349 8.11748 20.0291 8.06966 19.8309C8.02184 19.6326 7.93544 19.4457 7.81539 19.2809C7.69534 19.116 7.54399 18.9764 7.36999 18.87L6.45999 18.33C6.10864 18.114 5.8376 17.789 5.68822 17.4046C5.53884 17.0201 5.51931 16.5974 5.63262 16.2008C5.74592 15.8042 5.98584 15.4556 6.31578 15.2081C6.64572 14.9606 7.04755 14.8278 7.45999 14.83H9.67999C9.99295 14.83 10.2931 14.7057 10.5144 14.4844C10.7357 14.2631 10.86 13.963 10.86 13.65V13.1C10.86 12.7871 10.7357 12.487 10.5144 12.2657C10.2931 12.0444 9.99295 11.92 9.67999 11.92Z" stroke="#45413C" stroke-linecap="round" stroke-linejoin="round"/>
</svg>
