<svg width="48" height="48" viewBox="0 0 48 48" fill="none" xmlns="http://www.w3.org/2000/svg">
<path d="M28.84 6.57005C28.84 6.35005 30.39 1.40005 35.48 2.13005C40.57 2.86005 40.31 8.23005 39.48 9.90005C39.2096 10.4133 38.8276 10.8594 38.3621 11.2055C37.8966 11.5516 37.3593 11.789 36.79 11.9C36.79 11.9 38.49 8.76005 35.64 7.83005C34.03 7.30005 33.34 9.48005 33.34 9.48005L28.84 6.57005Z" fill="#FFFACF"/>
<path d="M35.48 3.57005C34.2311 3.3582 32.9472 3.56617 31.8291 4.16143C30.7109 4.75669 29.8215 5.70568 29.3 6.86005L28.84 6.57005C28.84 6.35005 30.39 1.40005 35.48 2.13005C39.4 2.69005 40.15 5.96005 39.93 8.21005C39.8763 7.02876 39.3955 5.90714 38.577 5.05369C37.7585 4.20024 36.658 3.67302 35.48 3.57005Z" fill="#FFFCE5"/>
<path d="M28.84 6.57005C28.84 6.35005 30.39 1.40005 35.48 2.13005C40.57 2.86005 40.31 8.23005 39.48 9.90005C39.2096 10.4133 38.8276 10.8594 38.3621 11.2055C37.8966 11.5516 37.3593 11.789 36.79 11.9C36.79 11.9 38.49 8.76005 35.64 7.83005C34.03 7.30005 33.34 9.48005 33.34 9.48005L28.84 6.57005Z" stroke="#45413C" stroke-linecap="round" stroke-linejoin="round"/>
<path d="M31.59 2.85006C32.59 2.45006 33.46 2.04006 35.04 3.42006C35.5799 4.01433 35.9465 4.7453 36.0999 5.53343C36.2533 6.32156 36.1876 7.13666 35.91 7.89006M39.39 4.81006C39.5048 5.24722 39.5295 5.70318 39.4624 6.15017C39.3954 6.59717 39.238 7.02583 39 7.41006C38.79 7.77136 38.501 8.08049 38.1547 8.31428C37.8083 8.54807 37.4136 8.70046 37 8.76006" stroke="#45413C" stroke-linecap="round" stroke-linejoin="round"/>
<path d="M11.71 37.5501C11.71 38.7911 11.8077 40.0199 11.9977 41.1665C12.1877 42.313 12.4661 43.3547 12.8171 44.2323C13.1681 45.1098 13.5848 45.8059 14.0434 46.2808C14.502 46.7557 14.9936 47.0001 15.49 47.0001C15.9864 47.0001 16.4779 46.7557 16.9365 46.2808C17.3951 45.8059 17.8118 45.1098 18.1628 44.2323C18.5138 43.3547 18.7923 42.313 18.9822 41.1665C19.1722 40.0199 19.27 38.7911 19.27 37.5501C19.27 36.3091 19.1722 35.0803 18.9822 33.9337C18.7923 32.7872 18.5138 31.7455 18.1628 30.8679C17.8118 29.9904 17.3951 29.2943 16.9365 28.8194C16.4779 28.3445 15.9864 28.1001 15.49 28.1001C14.9936 28.1001 14.502 28.3445 14.0434 28.8194C13.5848 29.2943 13.1681 29.9904 12.8171 30.8679C12.4661 31.7455 12.1877 32.7872 11.9977 33.9337C11.8077 35.0803 11.71 36.3091 11.71 37.5501Z" fill="#BDBEC0"/>
<path d="M19.27 37.5501C19.27 32.3301 17.58 28.1001 15.49 28.1001C13.4 28.1001 11.71 32.3301 11.71 37.5501C11.7055 38.8511 11.8193 40.1497 12.05 41.4301C13.4257 41.7066 14.8511 41.5994 16.17 41.1201C16.8492 41.8967 17.6578 42.5497 18.56 43.0501C19.0495 41.2583 19.2884 39.4074 19.27 37.5501Z" fill="#87898C"/>
<path d="M28.73 37.5501C28.73 38.7911 28.8278 40.0199 29.0177 41.1665C29.2077 42.313 29.4861 43.3547 29.8371 44.2323C30.1881 45.1098 30.6048 45.8059 31.0634 46.2808C31.522 46.7557 32.0136 47.0001 32.51 47.0001C33.0064 47.0001 33.4979 46.7557 33.9565 46.2808C34.4151 45.8059 34.8318 45.1098 35.1828 44.2323C35.5339 43.3547 35.8123 42.313 36.0022 41.1665C36.1922 40.0199 36.29 38.7911 36.29 37.5501C36.29 36.3091 36.1922 35.0803 36.0022 33.9337C35.8123 32.7872 35.5339 31.7455 35.1828 30.8679C34.8318 29.9904 34.4151 29.2943 33.9565 28.8194C33.4979 28.3445 33.0064 28.1001 32.51 28.1001C32.0136 28.1001 31.522 28.3445 31.0634 28.8194C30.6048 29.2943 30.1881 29.9904 29.8371 30.8679C29.4861 31.7455 29.2077 32.7872 29.0177 33.9337C28.8278 35.0803 28.73 36.3091 28.73 37.5501Z" fill="#BDBEC0"/>
<path d="M28.73 37.5501C28.73 32.3301 30.42 28.1001 32.51 28.1001C34.6 28.1001 36.29 32.3301 36.29 37.5501C36.311 38.8495 36.2139 40.1482 36 41.4301C34.6242 41.7066 33.1989 41.5994 31.88 41.1201C31.2008 41.8967 30.3922 42.5497 29.49 43.0501C28.9836 41.2607 28.7278 39.4098 28.73 37.5501Z" fill="#87898C"/>
<path d="M11.71 37.5501C11.71 38.7911 11.8077 40.0199 11.9977 41.1665C12.1877 42.313 12.4661 43.3547 12.8171 44.2323C13.1681 45.1098 13.5848 45.8059 14.0434 46.2808C14.502 46.7557 14.9936 47.0001 15.49 47.0001C15.9864 47.0001 16.4779 46.7557 16.9365 46.2808C17.3951 45.8059 17.8118 45.1098 18.1628 44.2323C18.5138 43.3547 18.7923 42.313 18.9822 41.1665C19.1722 40.0199 19.27 38.7911 19.27 37.5501C19.27 36.3091 19.1722 35.0803 18.9822 33.9337C18.7923 32.7872 18.5138 31.7455 18.1628 30.8679C17.8118 29.9904 17.3951 29.2943 16.9365 28.8194C16.4779 28.3445 15.9864 28.1001 15.49 28.1001C14.9936 28.1001 14.502 28.3445 14.0434 28.8194C13.5848 29.2943 13.1681 29.9904 12.8171 30.8679C12.4661 31.7455 12.1877 32.7872 11.9977 33.9337C11.8077 35.0803 11.71 36.3091 11.71 37.5501ZM28.73 37.5501C28.73 38.7911 28.8277 40.0199 29.0177 41.1665C29.2077 42.313 29.4861 43.3547 29.8371 44.2323C30.1881 45.1098 30.6048 45.8059 31.0634 46.2808C31.522 46.7557 32.0136 47.0001 32.51 47.0001C33.0064 47.0001 33.4979 46.7557 33.9565 46.2808C34.4151 45.8059 34.8318 45.1098 35.1828 44.2323C35.5338 43.3547 35.8123 42.313 36.0022 41.1665C36.1922 40.0199 36.29 38.7911 36.29 37.5501C36.29 36.3091 36.1922 35.0803 36.0022 33.9337C35.8123 32.7872 35.5338 31.7455 35.1828 30.8679C34.8318 29.9904 34.4151 29.2943 33.9565 28.8194C33.4979 28.3445 33.0064 28.1001 32.51 28.1001C32.0136 28.1001 31.522 28.3445 31.0634 28.8194C30.6048 29.2943 30.1881 29.9904 29.8371 30.8679C29.4861 31.7455 29.2077 32.7872 29.0177 33.9337C28.8277 35.0803 28.73 36.3091 28.73 37.5501Z" stroke="#45413C" stroke-linecap="round" stroke-linejoin="round"/>
<path d="M24 24.57C23.1606 24.5722 22.3281 24.7211 21.54 25.01C21.0872 24.3798 20.5013 23.857 19.8239 23.4785C19.1464 23.1 18.394 22.8752 17.62 22.82C17.4038 21.2839 16.6186 19.8849 15.42 18.9C15.447 18.7279 15.4637 18.5542 15.47 18.38C15.4984 17.7812 15.4051 17.1829 15.1956 16.6212C14.986 16.0596 14.6647 15.5463 14.251 15.1124C13.8373 14.6786 13.3398 14.3332 12.7888 14.0973C12.2377 13.8613 11.6444 13.7396 11.045 13.7396C10.4455 13.7396 9.85226 13.8613 9.30118 14.0973C8.75011 14.3332 8.25266 14.6786 7.83896 15.1124C7.42525 15.5463 7.10391 16.0596 6.89438 16.6212C6.68485 17.1829 6.5915 17.7812 6.61997 18.38C6.62471 18.801 6.69211 19.2189 6.81997 19.62C5.84286 20.743 5.30469 22.1815 5.30469 23.67C5.30469 25.1586 5.84286 26.597 6.81997 27.72C5.94442 29.0753 5.52541 30.6751 5.62422 32.2855C5.72304 33.8959 6.33448 35.4325 7.36915 36.6705C8.40382 37.9086 9.80743 38.7831 11.3747 39.1663C12.942 39.5494 14.5908 39.4211 16.08 38.8C17.0682 39.9178 18.2896 40.8051 19.658 41.3995C21.0264 41.9938 22.5086 42.2808 24 42.24C25.4914 42.2808 26.9735 41.9938 28.3419 41.3995C29.7104 40.8051 30.9318 39.9178 31.92 38.8C33.4106 39.4321 35.0647 39.5689 36.6389 39.1903C38.213 38.8117 39.6241 37.9378 40.6643 36.6971C41.7045 35.4564 42.319 33.9146 42.4172 32.2985C42.5154 30.6825 42.0923 29.0776 41.21 27.72C42.1871 26.597 42.7253 25.1586 42.7253 23.67C42.7253 22.1815 42.1871 20.743 41.21 19.62C41.3378 19.2189 41.4052 18.801 41.41 18.38C41.4384 17.7812 41.3451 17.1829 41.1356 16.6212C40.926 16.0596 40.6047 15.5463 40.191 15.1124C39.7773 14.6786 39.2798 14.3332 38.7288 14.0973C38.1777 13.8613 37.5844 13.7396 36.985 13.7396C36.3855 13.7396 35.7923 13.8613 35.2412 14.0973C34.6901 14.3332 34.1927 14.6786 33.779 15.1124C33.3653 15.5463 33.0439 16.0596 32.8344 16.6212C32.6249 17.1829 32.5315 17.7812 32.56 18.38C32.5496 18.5532 32.5496 18.7269 32.56 18.9C31.3613 19.8849 30.5762 21.2839 30.36 22.82C29.5902 22.8769 28.8423 23.1015 28.1685 23.4781C27.4948 23.8547 26.9116 24.3742 26.46 25C25.6713 24.7145 24.8388 24.569 24 24.57Z" fill="#E5FEFF"/>
<path d="M5.84004 26.17C6.08604 25.5929 6.42373 25.0594 6.84004 24.59C6.71207 24.1855 6.64467 23.7643 6.64004 23.34C6.61157 22.7412 6.70492 22.1429 6.91445 21.5812C7.12398 21.0196 7.44532 20.5063 7.85903 20.0724C8.27273 19.6386 8.77018 19.2932 9.32125 19.0573C9.87233 18.8213 10.4656 18.6996 11.065 18.6996C11.6645 18.6996 12.2577 18.8213 12.8088 19.0573C13.3599 19.2932 13.8574 19.6386 14.2711 20.0724C14.6848 20.5063 15.0061 21.0196 15.2156 21.5812C15.4252 22.1429 15.5185 22.7412 15.49 23.34C15.4838 23.5142 15.4671 23.6879 15.44 23.86C16.6387 24.8449 17.4238 26.2438 17.64 27.78C18.4131 27.8416 19.1632 28.0724 19.8371 28.456C20.5111 28.8396 21.0924 29.3667 21.54 30C23.1299 29.4266 24.8702 29.4266 26.46 30C26.9128 29.3698 27.4987 28.8469 28.1761 28.4685C28.8536 28.09 29.606 27.8652 30.38 27.81C30.5963 26.2738 31.3814 24.8749 32.58 23.89C32.5697 23.7169 32.5697 23.5432 32.58 23.37C32.5516 22.7712 32.6449 22.1729 32.8545 21.6112C33.064 21.0496 33.3853 20.5363 33.799 20.1024C34.2127 19.6686 34.7102 19.3232 35.2613 19.0873C35.8123 18.8513 36.4056 18.7296 37.005 18.7296C37.6045 18.7296 38.1977 18.8513 38.7488 19.0873C39.2999 19.3232 39.7974 19.6686 40.2111 20.1024C40.6248 20.5363 40.9461 21.0496 41.1556 21.6112C41.3652 22.1729 41.4585 22.7712 41.43 23.37C41.4254 23.7943 41.358 24.2155 41.23 24.62C41.6463 25.0894 41.984 25.6229 42.23 26.2C42.5859 25.4213 42.7734 24.5762 42.78 23.72C42.7808 22.2227 42.237 20.7761 41.25 19.65C41.3779 19.2489 41.4453 18.831 41.45 18.41C41.4785 17.8112 41.3852 17.2129 41.1756 16.6512C40.9661 16.0896 40.6448 15.5763 40.2311 15.1424C39.8174 14.7086 39.3199 14.3632 38.7688 14.1273C38.2177 13.8913 37.6245 13.7696 37.025 13.7696C36.4256 13.7696 35.8323 13.8913 35.2813 14.1273C34.7302 14.3632 34.2327 14.7086 33.819 15.1424C33.4053 15.5763 33.084 16.0896 32.8744 16.6512C32.6649 17.2129 32.5716 17.8112 32.6 18.41C32.5897 18.5832 32.5897 18.7569 32.6 18.93C31.4014 19.9149 30.6163 21.3138 30.4 22.85C29.6258 22.8976 28.8716 23.1149 28.1907 23.4864C27.5098 23.858 26.919 24.3747 26.46 25C24.8725 24.4136 23.1276 24.4136 21.54 25C21.0873 24.3698 20.5014 23.8469 19.8239 23.4685C19.1465 23.09 18.3941 22.8652 17.62 22.81C17.4038 21.2738 16.6187 19.8749 15.42 18.89C15.4471 18.7179 15.4638 18.5442 15.47 18.37C15.4985 17.7712 15.4052 17.1729 15.1956 16.6112C14.9861 16.0496 14.6648 15.5363 14.2511 15.1024C13.8374 14.6686 13.3399 14.3232 12.7888 14.0873C12.2377 13.8513 11.6445 13.7296 11.045 13.7296C10.4456 13.7296 9.85233 13.8513 9.30126 14.0873C8.75018 14.3232 8.25273 14.6686 7.83903 15.1024C7.42532 15.5363 7.10398 16.0496 6.89445 16.6112C6.68492 17.1729 6.59157 17.7712 6.62004 18.37C6.62478 18.791 6.69218 19.2089 6.82004 19.61C5.83307 20.7361 5.28928 22.1827 5.29004 23.68C5.2953 24.5396 5.48276 25.3882 5.84004 26.17Z" fill="white"/>
<path d="M24 24.57C23.1606 24.5722 22.3281 24.7211 21.54 25.01C21.0872 24.3798 20.5013 23.857 19.8239 23.4785C19.1464 23.1 18.394 22.8752 17.62 22.82C17.4038 21.2839 16.6186 19.8849 15.42 18.9C15.447 18.7279 15.4637 18.5542 15.47 18.38C15.4984 17.7812 15.4051 17.1829 15.1956 16.6212C14.986 16.0596 14.6647 15.5463 14.251 15.1124C13.8373 14.6786 13.3398 14.3332 12.7888 14.0973C12.2377 13.8613 11.6444 13.7396 11.045 13.7396C10.4455 13.7396 9.85226 13.8613 9.30118 14.0973C8.75011 14.3332 8.25266 14.6786 7.83896 15.1124C7.42525 15.5463 7.10391 16.0596 6.89438 16.6212C6.68485 17.1829 6.5915 17.7812 6.61997 18.38C6.62471 18.801 6.69211 19.2189 6.81997 19.62C5.84286 20.743 5.30469 22.1815 5.30469 23.67C5.30469 25.1586 5.84286 26.597 6.81997 27.72C5.94442 29.0753 5.52541 30.6751 5.62422 32.2855C5.72304 33.8959 6.33448 35.4325 7.36915 36.6705C8.40382 37.9086 9.80743 38.7831 11.3747 39.1663C12.942 39.5494 14.5908 39.4211 16.08 38.8C17.0682 39.9178 18.2896 40.8051 19.658 41.3995C21.0264 41.9938 22.5086 42.2808 24 42.24C25.4914 42.2808 26.9735 41.9938 28.3419 41.3995C29.7104 40.8051 30.9318 39.9178 31.92 38.8C33.4106 39.4321 35.0647 39.5689 36.6389 39.1903C38.213 38.8117 39.6241 37.9378 40.6643 36.6971C41.7045 35.4564 42.319 33.9146 42.4172 32.2985C42.5154 30.6825 42.0923 29.0776 41.21 27.72C42.1871 26.597 42.7253 25.1586 42.7253 23.67C42.7253 22.1815 42.1871 20.743 41.21 19.62C41.3378 19.2189 41.4052 18.801 41.41 18.38C41.4384 17.7812 41.3451 17.1829 41.1356 16.6212C40.926 16.0596 40.6047 15.5463 40.191 15.1124C39.7773 14.6786 39.2798 14.3332 38.7288 14.0973C38.1777 13.8613 37.5844 13.7396 36.985 13.7396C36.3855 13.7396 35.7923 13.8613 35.2412 14.0973C34.6901 14.3332 34.1927 14.6786 33.779 15.1124C33.3653 15.5463 33.0439 16.0596 32.8344 16.6212C32.6249 17.1829 32.5315 17.7812 32.56 18.38C32.5496 18.5532 32.5496 18.7269 32.56 18.9C31.3613 19.8849 30.5762 21.2839 30.36 22.82C29.5902 22.8769 28.8423 23.1015 28.1685 23.4781C27.4948 23.8547 26.9116 24.3742 26.46 25C25.6713 24.7145 24.8388 24.569 24 24.57Z" stroke="#45413C" stroke-linecap="round" stroke-linejoin="round"/>
<path d="M19.16 6.57005C19.16 6.35005 17.61 1.40005 12.52 2.13005C7.42996 2.86005 7.68996 8.23005 8.51996 9.90005C8.79031 10.4133 9.17231 10.8594 9.63784 11.2055C10.1034 11.5516 10.6406 11.789 11.21 11.9C11.21 11.9 9.48996 8.73005 12.34 7.80005C13.95 7.27005 14.64 9.45005 14.64 9.45005L19.16 6.57005Z" fill="#FFFACF"/>
<path d="M12.52 3.57005C13.7689 3.3582 15.0527 3.56617 16.1709 4.16143C17.289 4.75669 18.1784 5.70568 18.7 6.86005L19.16 6.57005C19.16 6.35005 17.61 1.40005 12.52 2.13005C8.59999 2.69005 7.84999 6.00005 8.06999 8.21005C8.12365 7.02876 8.60442 5.90714 9.42292 5.05369C10.2414 4.20024 11.342 3.67302 12.52 3.57005Z" fill="#FFFCE5"/>
<path d="M19.16 6.57005C19.16 6.35005 17.61 1.40005 12.52 2.13005C7.42996 2.86005 7.68996 8.23005 8.51996 9.90005C8.79031 10.4133 9.17231 10.8594 9.63784 11.2055C10.1034 11.5516 10.6406 11.789 11.21 11.9C11.21 11.9 9.48996 8.73005 12.34 7.80005C13.95 7.27005 14.64 9.45005 14.64 9.45005L19.16 6.57005Z" stroke="#45413C" stroke-linecap="round" stroke-linejoin="round"/>
<path d="M16 9.62C13.9935 12.0073 12.2219 14.5825 10.71 17.31C9.15999 20.08 8.86999 21.75 11.65 23.31C15.59 25.57 15.95 20.89 16.53 16.31C17.11 11.73 16 9.62 16 9.62Z" fill="#BDBEC0" stroke="#45413C" stroke-linecap="round" stroke-linejoin="round"/>
<path d="M15.1501 14.49C15.1501 14.49 11.7701 18.49 12.0501 19.8C12.1777 20.3822 12.5263 20.8921 13.0225 21.2223C13.5187 21.5524 14.1237 21.6771 14.7101 21.57C15.9201 21.46 16.4801 18.03 16.4801 18.03L15.1501 14.49Z" fill="#FFCCDD" stroke="#45413C" stroke-linecap="round" stroke-linejoin="round"/>
<path d="M32 9.62C34.0065 12.0073 35.7781 14.5825 37.29 17.31C38.84 20.08 39.13 21.75 36.35 23.31C32.41 25.57 32.05 20.89 31.47 16.31C30.89 11.73 32 9.62 32 9.62Z" fill="#BDBEC0" stroke="#45413C" stroke-linecap="round" stroke-linejoin="round"/>
<path d="M32.85 14.49C32.85 14.49 36.23 18.49 35.95 19.8C35.8224 20.3822 35.4737 20.8921 34.9775 21.2223C34.4813 21.5524 33.8763 21.6771 33.29 21.57C32.08 21.46 31.52 18 31.52 18L32.85 14.49Z" fill="#FFCCDD" stroke="#45413C" stroke-linecap="round" stroke-linejoin="round"/>
<path opacity="0.15" d="M9.81995 46.5C9.81995 46.8978 11.3139 47.2794 13.9732 47.5607C16.6324 47.842 20.2392 48 23.9999 48C27.7607 48 31.3675 47.842 34.0267 47.5607C36.686 47.2794 38.1799 46.8978 38.1799 46.5C38.1799 46.1022 36.686 45.7206 34.0267 45.4393C31.3675 45.158 27.7607 45 23.9999 45C20.2392 45 16.6324 45.158 13.9732 45.4393C11.3139 45.7206 9.81995 46.1022 9.81995 46.5Z" fill="#45413C"/>
<path d="M33.64 15.82C33.64 23.82 29.06 30.27 24 30.27C18.94 30.27 14.36 23.8 14.36 15.82C14.36 7.83996 18.94 5.20996 24 5.20996C29.06 5.20996 33.64 7.82996 33.64 15.82Z" fill="#BDBEC0"/>
<path d="M24 5.20996C19.14 5.20996 14.73 7.62996 14.38 14.89C14.5665 14.8998 14.7535 14.8998 14.94 14.89C15.6536 14.8998 16.3611 14.7567 17.0148 14.4704C17.6685 14.1841 18.2533 13.7611 18.73 13.23C19.0439 14.376 19.7345 15.383 20.6905 16.0887C21.6465 16.7944 22.8123 17.1577 24 17.12C25.1811 17.1606 26.3418 16.8045 27.297 16.1085C28.2522 15.4125 28.9468 14.4167 29.27 13.28C29.7467 13.8111 30.3315 14.2341 30.9852 14.5204C31.639 14.8067 32.3464 14.9498 33.06 14.94C33.2465 14.9498 33.4335 14.9498 33.62 14.94C33.27 7.62996 28.86 5.20996 24 5.20996Z" fill="#87898C"/>
<path d="M33.64 15.82C33.64 23.82 29.06 30.27 24 30.27C18.94 30.27 14.36 23.8 14.36 15.82C14.36 7.83996 18.94 5.20996 24 5.20996C29.06 5.20996 33.64 7.82996 33.64 15.82Z" stroke="#45413C" stroke-linecap="round" stroke-linejoin="round"/>
<path d="M26.89 25.36C26.7317 26.0192 26.3651 26.6097 25.8444 27.0439C25.3237 27.4781 24.6769 27.7327 24 27.7699C23.3231 27.7327 22.6762 27.4781 22.1556 27.0439C21.6349 26.6097 21.2682 26.0192 21.11 25.36C21.11 24.56 22.4 25.36 24 25.36C25.6 25.36 26.89 24.56 26.89 25.36Z" fill="#87898C" stroke="#45413C" stroke-linecap="round" stroke-linejoin="round"/>
<path d="M24 1.92004C22.8207 1.92135 21.6754 2.31519 20.7447 3.03946C19.8141 3.76373 19.151 4.7772 18.86 5.92004C18.2426 5.50335 17.5149 5.2805 16.77 5.28004C16.1147 5.27478 15.4689 5.43644 14.8933 5.74978C14.3178 6.06313 13.8315 6.51784 13.4803 7.07109C13.129 7.62433 12.9244 8.25788 12.8858 8.91206C12.8471 9.56623 12.9756 10.2195 13.2592 10.8103C13.5427 11.401 13.972 11.9099 14.5066 12.2889C15.0412 12.6679 15.6635 12.9045 16.3149 12.9765C16.9662 13.0486 17.6252 12.9535 18.2297 12.7005C18.8341 12.4474 19.3642 12.0446 19.77 11.53C19.9811 12.4949 20.5156 13.3586 21.285 13.9779C22.0544 14.5972 23.0124 14.9348 24 14.9348C24.9877 14.9348 25.9457 14.5972 26.715 13.9779C27.4844 13.3586 28.019 12.4949 28.23 11.53C28.6364 12.0398 29.1655 12.4379 29.7678 12.6873C30.3702 12.9366 31.0259 13.0289 31.6737 12.9556C32.3214 12.8822 32.9399 12.6456 33.4712 12.2679C34.0025 11.8902 34.4292 11.3837 34.7113 10.796C34.9934 10.2084 35.1216 9.55867 35.084 8.90788C35.0464 8.25709 34.8441 7.6265 34.4962 7.07523C34.1483 6.52396 33.6661 6.07005 33.0948 5.75606C32.5235 5.44208 31.8819 5.27829 31.23 5.28004C30.4852 5.2805 29.7574 5.50335 29.14 5.92004C28.8491 4.7772 28.186 3.76373 27.2553 3.03946C26.3246 2.31519 25.1793 1.92135 24 1.92004Z" fill="#E5FEFF"/>
<path d="M16.7701 8.00001C17.5133 8.00167 18.2397 8.22066 18.8601 8.63001C19.148 7.48491 19.8101 6.46875 20.7412 5.74274C21.6724 5.01673 22.8193 4.62245 24.0001 4.62245C25.1808 4.62245 26.3277 5.01673 27.2589 5.74274C28.1901 6.46875 28.8521 7.48491 29.1401 8.63001C29.6192 8.31411 30.1635 8.11026 30.7323 8.03359C31.3011 7.95692 31.8798 8.00941 32.4256 8.18715C32.9713 8.3649 33.47 8.66334 33.8845 9.06029C34.2991 9.45723 34.6188 9.94249 34.8201 10.48C34.9925 10.0439 35.0808 9.579 35.0801 9.11001C35.0814 8.60358 34.9828 8.10186 34.7899 7.6336C34.597 7.16535 34.3136 6.73974 33.956 6.38118C33.5983 6.02261 33.1735 5.73813 32.7057 5.54402C32.2379 5.34992 31.7365 5.25 31.2301 5.25001C30.4852 5.25046 29.7574 5.47331 29.1401 5.89001C28.8521 4.74491 28.1901 3.72875 27.2589 3.00274C26.3277 2.27673 25.1808 1.88245 24.0001 1.88245C22.8193 1.88245 21.6724 2.27673 20.7412 3.00274C19.8101 3.72875 19.148 4.74491 18.8601 5.89001C18.2427 5.47331 17.5149 5.25046 16.7701 5.25001C16.2636 5.25 15.7622 5.34992 15.2944 5.54402C14.8267 5.73813 14.4018 6.02261 14.0442 6.38118C13.6865 6.73974 13.4031 7.16535 13.2102 7.6336C13.0174 8.10186 12.9187 8.60358 12.9201 9.11001C12.9194 9.579 13.0076 10.0439 13.1801 10.48C13.4561 9.75115 13.9474 9.12355 14.5886 8.68057C15.2298 8.2376 15.9907 8.00023 16.7701 8.00001Z" fill="white"/>
<path d="M24 1.92004C22.8207 1.92135 21.6754 2.31519 20.7447 3.03946C19.8141 3.76373 19.151 4.7772 18.86 5.92004C18.2426 5.50335 17.5149 5.2805 16.77 5.28004C16.1147 5.27478 15.4689 5.43644 14.8933 5.74978C14.3178 6.06313 13.8315 6.51784 13.4803 7.07109C13.129 7.62433 12.9244 8.25788 12.8858 8.91206C12.8471 9.56623 12.9756 10.2195 13.2592 10.8103C13.5427 11.401 13.972 11.9099 14.5066 12.2889C15.0412 12.6679 15.6635 12.9045 16.3149 12.9765C16.9662 13.0486 17.6252 12.9535 18.2297 12.7005C18.8341 12.4474 19.3642 12.0446 19.77 11.53C19.9811 12.4949 20.5156 13.3586 21.285 13.9779C22.0544 14.5972 23.0124 14.9348 24 14.9348C24.9877 14.9348 25.9457 14.5972 26.715 13.9779C27.4844 13.3586 28.019 12.4949 28.23 11.53C28.6364 12.0398 29.1655 12.4379 29.7678 12.6873C30.3702 12.9366 31.0259 13.0289 31.6737 12.9556C32.3214 12.8822 32.9399 12.6456 33.4712 12.2679C34.0025 11.8902 34.4292 11.3837 34.7113 10.796C34.9934 10.2084 35.1216 9.55867 35.084 8.90788C35.0464 8.25709 34.8441 7.6265 34.4962 7.07523C34.1483 6.52396 33.6661 6.07005 33.0948 5.75606C32.5235 5.44208 31.8819 5.27829 31.23 5.28004C30.4852 5.2805 29.7574 5.50335 29.14 5.92004C28.8491 4.7772 28.186 3.76373 27.2553 3.03946C26.3246 2.31519 25.1793 1.92135 24 1.92004Z" stroke="#45413C" stroke-linecap="round" stroke-linejoin="round"/>
<path d="M29.75 18.91C29.7519 19.1739 29.6754 19.4324 29.53 19.6527C29.3846 19.8729 29.177 20.0449 28.9336 20.1468C28.6901 20.2487 28.4219 20.2759 28.163 20.2249C27.904 20.1739 27.6661 20.047 27.4795 19.8604C27.2929 19.6738 27.1661 19.4359 27.1151 19.177C27.0641 18.9181 27.0912 18.6498 27.1931 18.4064C27.295 18.163 27.4671 17.9554 27.6873 17.81C27.9075 17.6646 28.1661 17.588 28.43 17.59C28.78 17.59 29.1158 17.7291 29.3633 17.9766C29.6109 18.2242 29.75 18.5599 29.75 18.91ZM20.9 18.91C20.9019 19.1735 20.8256 19.4316 20.6807 19.6516C20.5358 19.8716 20.3287 20.0437 20.0859 20.1459C19.843 20.2481 19.5753 20.2758 19.3167 20.2257C19.058 20.1755 18.8201 20.0496 18.6331 19.864C18.4461 19.6784 18.3184 19.4414 18.2663 19.1832C18.2142 18.9249 18.2399 18.657 18.3403 18.4134C18.4406 18.1698 18.6111 17.9615 18.83 17.8149C19.0489 17.6683 19.3065 17.59 19.57 17.59C19.7441 17.5887 19.9169 17.6219 20.0782 17.6876C20.2395 17.7533 20.3862 17.8504 20.5098 17.9731C20.6334 18.0958 20.7316 18.2417 20.7985 18.4025C20.8655 18.5633 20.9 18.7358 20.9 18.91Z" fill="#45413C"/>
<path d="M31.08 22.9C31.08 23.17 30.69 23.4 30.2 23.4C29.71 23.4 29.31 23.17 29.31 22.9C29.31 22.63 29.71 22.4 30.2 22.4C30.69 22.4 31.08 22.62 31.08 22.9ZM18.69 22.9C18.69 23.17 18.29 23.4 17.8 23.4C17.31 23.4 16.92 23.17 16.92 22.9C16.92 22.63 17.31 22.4 17.8 22.4C18.29 22.4 18.69 22.62 18.69 22.9Z" fill="#FFCCDD"/>
<path d="M24 27.7701V30.2701M16.41 2.85006C15.41 2.45006 14.54 2.04006 12.96 3.42006C12.4201 4.01433 12.0535 4.7453 11.9001 5.53343C11.7467 6.32156 11.8124 7.13666 12.09 7.89006M8.61003 4.81006C8.49518 5.24722 8.47053 5.70318 8.53757 6.15017C8.60462 6.59717 8.76197 7.02583 9.00003 7.41006C9.20997 7.77136 9.49895 8.08049 9.8453 8.31428C10.1917 8.54807 10.5864 8.70046 11 8.76006" stroke="#45413C" stroke-linecap="round" stroke-linejoin="round"/>
<path d="M15.4901 43.6901C14.4401 43.6901 13.4901 43.6001 12.8101 44.2001C13.4901 45.9301 14.4401 47.0001 15.4901 47.0001C16.5401 47.0001 17.4901 45.9301 18.1801 44.2001C17.4901 43.6001 16.5401 43.6901 15.4901 43.6901Z" fill="#FFFACF" stroke="#45413C" stroke-linecap="round" stroke-linejoin="round"/>
<path d="M15.49 43.6899V46.9999" stroke="#45413C" stroke-linecap="round" stroke-linejoin="round"/>
<path d="M32.5099 43.6901C31.5099 43.6901 30.5099 43.6001 29.8199 44.2001C30.5099 45.9301 31.4599 47.0001 32.5099 47.0001C33.5599 47.0001 34.5099 45.9301 35.1899 44.2001C34.5099 43.6001 33.5599 43.6901 32.5099 43.6901Z" fill="#FFFACF" stroke="#45413C" stroke-linecap="round" stroke-linejoin="round"/>
<path d="M32.51 43.6899V46.9999" stroke="#45413C" stroke-linecap="round" stroke-linejoin="round"/>
</svg>
