<svg width="48" height="48" viewBox="0 0 48 48" fill="none" xmlns="http://www.w3.org/2000/svg">
<path opacity="0.15" d="M7.59998 45.1801C7.59998 45.6628 9.32783 46.1257 12.4034 46.467C15.479 46.8084 19.6504 47.0001 24 47.0001C28.3495 47.0001 32.5209 46.8084 35.5965 46.467C38.6721 46.1257 40.4 45.6628 40.4 45.1801C40.4 44.9411 39.9758 44.7044 39.1516 44.4836C38.3274 44.2628 37.1194 44.0622 35.5965 43.8932C34.0736 43.7242 32.2657 43.5901 30.276 43.4986C28.2862 43.4072 26.1537 43.3601 24 43.3601C21.8463 43.3601 19.7137 43.4072 17.724 43.4986C15.7342 43.5901 13.9263 43.7242 12.4034 43.8932C10.8805 44.0622 9.67253 44.2628 8.84835 44.4836C8.02417 44.7044 7.59998 44.9411 7.59998 45.1801Z" fill="#45413C"/>
<path d="M13.0699 44.4999C12.4255 44.4999 11.8074 44.2439 11.3517 43.7882C10.896 43.3325 10.6399 42.7144 10.6399 42.0699V19.2699C10.6403 19.1629 10.6129 19.0576 10.5605 18.9642C10.508 18.8709 10.4323 18.7927 10.3406 18.7373C10.249 18.6819 10.1446 18.6512 10.0376 18.6482C9.93056 18.6451 9.82458 18.6699 9.72995 18.7199C8.99995 19.1299 8.28995 19.5699 7.59995 19.9999C7.31755 20.2173 6.98976 20.3683 6.64097 20.4415C6.29219 20.5147 5.93138 20.5083 5.58541 20.4227C5.23944 20.3372 4.91722 20.1747 4.64272 19.9474C4.36822 19.7202 4.14851 19.4339 3.99995 19.1099L2.11995 15.2199C1.86077 14.6805 1.80715 14.065 1.96914 13.4888C2.13113 12.9127 2.49761 12.4153 2.99995 12.0899C9.25386 8.03643 16.5473 5.87952 23.9999 5.87952C31.4526 5.87952 38.746 8.03643 44.9999 12.0899C45.5039 12.4139 45.8711 12.9119 46.0316 13.4891C46.192 14.0663 46.1345 14.6824 45.8699 15.2199L43.9999 19.1099C43.8514 19.4339 43.6317 19.7202 43.3572 19.9474C43.0827 20.1747 42.7604 20.3372 42.4145 20.4227C42.0685 20.5083 41.7077 20.5147 41.3589 20.4415C41.0101 20.3683 40.6823 20.2173 40.3999 19.9999C39.7099 19.5399 38.9999 19.0999 38.2599 18.6899C38.1657 18.6422 38.0607 18.6194 37.9552 18.6236C37.8496 18.6278 37.7468 18.659 37.6566 18.7141C37.5665 18.7692 37.4919 18.8464 37.44 18.9385C37.388 19.0305 37.3605 19.1343 37.3599 19.2399V42.0399C37.3599 42.6844 37.1039 43.3025 36.6482 43.7582C36.1925 44.2139 35.5744 44.4699 34.9299 44.4699L13.0699 44.4999Z" fill="#00B8F0"/>
<path d="M14.8899 7.15002L15.1599 6.90002C10.8377 7.91609 6.72378 9.67196 2.99995 12.09C2.49761 12.4154 2.13113 12.9128 1.96914 13.4889C1.80715 14.0651 1.86077 14.6805 2.11995 15.22L2.99995 16.94C7.07027 14.2891 11.6075 12.4362 16.3699 11.48L14.8899 7.15002ZM44.9999 12.09C41.2761 9.67196 37.1622 7.91609 32.8399 6.90002L33.1099 7.15002L31.6299 11.47C36.3924 12.4262 40.9296 14.2791 44.9999 16.93L45.8399 15.21C46.1045 14.677 46.1651 14.0657 46.0104 13.4911C45.8557 12.9165 45.4963 12.4182 44.9999 12.09Z" fill="#4ACFFF"/>
<path d="M13.0699 44.4999C12.4255 44.4999 11.8074 44.2439 11.3517 43.7882C10.896 43.3325 10.6399 42.7144 10.6399 42.0699V19.2699C10.6403 19.1629 10.6129 19.0576 10.5605 18.9642C10.508 18.8709 10.4323 18.7927 10.3406 18.7373C10.249 18.6819 10.1446 18.6512 10.0376 18.6482C9.93056 18.6451 9.82458 18.6699 9.72995 18.7199C8.99995 19.1299 8.28995 19.5699 7.59995 19.9999C7.31755 20.2173 6.98976 20.3683 6.64097 20.4415C6.29219 20.5147 5.93138 20.5083 5.58541 20.4227C5.23944 20.3372 4.91722 20.1747 4.64272 19.9474C4.36822 19.7202 4.14851 19.4339 3.99995 19.1099L2.11995 15.2199C1.86077 14.6805 1.80715 14.065 1.96914 13.4888C2.13113 12.9127 2.49761 12.4153 2.99995 12.0899C9.25386 8.03643 16.5473 5.87952 23.9999 5.87952C31.4526 5.87952 38.746 8.03643 44.9999 12.0899C45.5039 12.4139 45.8711 12.9119 46.0316 13.4891C46.192 14.0663 46.1345 14.6824 45.8699 15.2199L43.9999 19.1099C43.8514 19.4339 43.6317 19.7202 43.3572 19.9474C43.0827 20.1747 42.7604 20.3372 42.4145 20.4227C42.0685 20.5083 41.7077 20.5147 41.3589 20.4415C41.0101 20.3683 40.6823 20.2173 40.3999 19.9999C39.7099 19.5399 38.9999 19.0999 38.2599 18.6899C38.1657 18.6422 38.0607 18.6194 37.9552 18.6236C37.8496 18.6278 37.7468 18.659 37.6566 18.7141C37.5665 18.7692 37.4919 18.8464 37.44 18.9385C37.388 19.0305 37.3605 19.1343 37.3599 19.2399V42.0399C37.3599 42.6844 37.1039 43.3025 36.6482 43.7582C36.1925 44.2139 35.5744 44.4699 34.9299 44.4699L13.0699 44.4999Z" stroke="#45413C" stroke-linecap="round" stroke-linejoin="round"/>
<path d="M29.47 3.81006L24 9.27006L30.05 13.6701C30.1246 13.7239 30.2103 13.7601 30.3009 13.7761C30.3914 13.7921 30.4844 13.7874 30.5729 13.7624C30.6613 13.7374 30.743 13.6927 30.8118 13.6317C30.8806 13.5707 30.9346 13.4949 30.97 13.4101L33.11 7.15006L29.47 3.81006ZM18.53 3.81006L24 9.27006L18 13.6701C17.9255 13.7239 17.8397 13.7601 17.7492 13.7761C17.6586 13.7921 17.5657 13.7874 17.4772 13.7624C17.3887 13.7374 17.307 13.6927 17.2383 13.6317C17.1695 13.5707 17.1154 13.4949 17.08 13.4101L14.89 7.15006L18.53 3.81006Z" fill="#00B8F0"/>
<path d="M31.26 5.45006L29.47 3.81006L24 9.27006L25.99 10.7201L31.26 5.45006ZM22.01 10.7201L24 9.27006L18.53 3.81006L16.74 5.45006L22.01 10.7201Z" fill="#4ACFFF"/>
<path d="M24 9.27006L29.47 3.81006L33.11 7.15006L30.97 13.4101C30.9346 13.4949 30.8806 13.5707 30.8118 13.6317C30.743 13.6927 30.6613 13.7374 30.5729 13.7624C30.4844 13.7874 30.3914 13.7921 30.3009 13.7761C30.2103 13.7601 30.1246 13.7239 30.05 13.6701L24 9.27006ZM24 9.27006L18.53 3.81006L14.89 7.15006L17.08 13.4101C17.1154 13.4949 17.1695 13.5707 17.2383 13.6317C17.307 13.6927 17.3887 13.7374 17.4772 13.7624C17.5657 13.7874 17.6586 13.7921 17.7492 13.7761C17.8397 13.7601 17.9255 13.7239 18 13.6701L24 9.27006Z" stroke="#45413C" stroke-linecap="round" stroke-linejoin="round"/>
<path d="M18.53 3.81006L24 9.27006L29.47 3.81006H18.53Z" fill="#009FD9"/>
<path d="M27.21 6.07006H20.79L18.53 3.81006H29.47L27.21 6.07006Z" fill="#00B8F0"/>
<path d="M24 9.27006L18.53 3.81006H29.47L24 9.27006ZM24 9.27006V14.7401" stroke="#45413C" stroke-linecap="round" stroke-linejoin="round"/>
</svg>
