<svg width="48" height="48" viewBox="0 0 48 48" fill="none" xmlns="http://www.w3.org/2000/svg">
<path d="M7.83997 20.66C7.83997 25.6089 9.80592 30.3552 13.3054 33.8546C16.8048 37.354 21.551 39.32 26.5 39.32C31.4489 39.32 36.1952 37.354 39.6946 33.8546C43.194 30.3552 45.16 25.6089 45.16 20.66C45.16 15.7111 43.194 10.9648 39.6946 7.46539C36.1952 3.96596 31.4489 2 26.5 2C21.551 2 16.8048 3.96596 13.3054 7.46539C9.80592 10.9648 7.83997 15.7111 7.83997 20.66Z" fill="#FFE500"/>
<path d="M26.5 2C22.8094 2 19.2017 3.09439 16.133 5.14478C13.0644 7.19517 10.6727 10.1095 9.26038 13.5191C7.84805 16.9288 7.47852 20.6807 8.19852 24.3004C8.91852 27.9201 10.6957 31.245 13.3054 33.8546C15.915 36.4643 19.2399 38.2415 22.8596 38.9615C26.4793 39.6815 30.2312 39.3119 33.6408 37.8996C37.0505 36.4873 39.9648 34.0956 42.0152 31.0269C44.0656 27.9583 45.16 24.3506 45.16 20.66C45.1613 18.2092 44.6795 15.7821 43.7422 13.5176C42.805 11.253 41.4305 9.19546 39.6975 7.46246C37.9645 5.72946 35.9069 4.35502 33.6424 3.41773C31.3779 2.48045 28.9508 1.99869 26.5 2ZM26.5 36.52C23.1377 36.52 19.8509 35.523 17.0553 33.655C14.2596 31.787 12.0807 29.132 10.794 26.0256C9.50733 22.9193 9.17068 19.5011 9.82663 16.2035C10.4826 12.9058 12.1017 9.87668 14.4792 7.49919C16.8567 5.12169 19.8858 3.5026 23.1834 2.84665C26.4811 2.1907 29.8993 2.52736 33.0056 3.81405C36.1119 5.10074 38.767 7.27967 40.635 10.0753C42.5029 12.8709 43.5 16.1577 43.5 19.52C43.5 24.0287 41.7089 28.3527 38.5208 31.5408C35.3327 34.7289 31.0087 36.52 26.5 36.52Z" fill="#EBCB00"/>
<path d="M20.9 5.72996C20.9 5.91381 21.0449 6.09586 21.3263 6.26571C21.6077 6.43557 22.0202 6.5899 22.5402 6.71991C23.0602 6.84991 23.6776 6.95303 24.357 7.02339C25.0364 7.09374 25.7646 7.12996 26.5 7.12996C27.2354 7.12996 27.9636 7.09374 28.6431 7.02339C29.3225 6.95303 29.9398 6.84991 30.4598 6.71991C30.9798 6.5899 31.3923 6.43557 31.6737 6.26571C31.9552 6.09586 32.1 5.91381 32.1 5.72996C32.1 5.54611 31.9552 5.36405 31.6737 5.1942C31.3923 5.02434 30.9798 4.87001 30.4598 4.74001C29.9398 4.61 29.3225 4.50688 28.6431 4.43652C27.9636 4.36617 27.2354 4.32996 26.5 4.32996C25.7646 4.32996 25.0364 4.36617 24.357 4.43652C23.6776 4.50688 23.0602 4.61 22.5402 4.74001C22.0202 4.87001 21.6077 5.02434 21.3263 5.1942C21.0449 5.36405 20.9 5.54611 20.9 5.72996Z" fill="#FFF48C"/>
<path d="M7.86 39.41C7.95596 39.0024 8.16424 38.6299 8.46119 38.3348C8.75814 38.0396 9.13188 37.8335 9.54 37.74L12.91 37C12.9699 36.9845 13.023 36.9496 13.061 36.9008C13.099 36.8519 13.1198 36.7919 13.12 36.73C13.1203 36.6668 13.0999 36.6053 13.062 36.5547C13.0241 36.5042 12.9707 36.4674 12.91 36.45L9.54 35.68C9.13111 35.5846 8.75707 35.3767 8.46018 35.0798C8.16328 34.7829 7.95539 34.4089 7.86 34L7.08 30.63C7.06375 30.5709 7.02854 30.5187 6.97976 30.4815C6.93098 30.4443 6.87134 30.4242 6.81 30.4242C6.74866 30.4242 6.68902 30.4443 6.64024 30.4815C6.59146 30.5187 6.55625 30.5709 6.54 30.63L5.76 34C5.66461 34.4089 5.45672 34.7829 5.15982 35.0798C4.86293 35.3767 4.48889 35.5846 4.08 35.68L0.72 36.45C0.657417 36.4656 0.601807 36.5015 0.561964 36.5523C0.522121 36.603 0.500317 36.6655 0.5 36.73C0.500791 36.7932 0.522965 36.8543 0.562912 36.9034C0.60286 36.9524 0.658227 36.9865 0.72 37L4.08 37.78C4.48913 37.8713 4.86404 38.0767 5.16135 38.3722C5.45866 38.6677 5.66621 39.0414 5.76 39.45L6.54 42.82C6.55625 42.8791 6.59146 42.9313 6.64024 42.9685C6.68902 43.0057 6.74866 43.0258 6.81 43.0258C6.87134 43.0258 6.93098 43.0057 6.97976 42.9685C7.02854 42.9313 7.06375 42.8791 7.08 42.82L7.86 39.41ZM44.7 6L47.33 5.12C47.3785 5.10365 47.4207 5.07284 47.4511 5.03171C47.4815 4.99058 47.4986 4.94112 47.5 4.89C47.4992 4.83751 47.4825 4.78649 47.4522 4.74365C47.4219 4.70081 47.3793 4.66817 47.33 4.65L45.16 4C45.0153 3.94952 44.8841 3.86646 44.7766 3.75722C44.6691 3.64798 44.5882 3.5155 44.54 3.37L43.82 1.21C43.809 1.15332 43.7794 1.10191 43.736 1.06388C43.6925 1.02586 43.6376 1.00338 43.58 1C43.5289 1.00141 43.4794 1.01846 43.4383 1.04886C43.3972 1.07926 43.3663 1.12154 43.35 1.17L42.63 3.33C42.5863 3.48394 42.5062 3.62513 42.3966 3.74172C42.287 3.85831 42.151 3.94688 42 4L39.83 4.72C39.7807 4.73817 39.7381 4.77081 39.7078 4.81365C39.6775 4.85649 39.6608 4.90751 39.66 4.96C39.6614 5.01112 39.6785 5.06058 39.7089 5.10171C39.7393 5.14284 39.7815 5.17365 39.83 5.19L42 5.87C42.1466 5.91917 42.2797 6.00165 42.389 6.11096C42.4983 6.22027 42.5808 6.35344 42.63 6.5L43.35 8.67C43.3663 8.71846 43.3972 8.76074 43.4383 8.79114C43.4794 8.82154 43.5289 8.83859 43.58 8.84C43.6325 8.83921 43.6835 8.82254 43.7263 8.7922C43.7692 8.76185 43.8018 8.71925 43.82 8.67L44.7 6Z" fill="white" stroke="#45413C" stroke-width="0.833333" stroke-linecap="round" stroke-linejoin="round"/>
<path d="M7.83997 20.66C7.83997 25.6089 9.80592 30.3552 13.3054 33.8546C16.8048 37.354 21.551 39.32 26.5 39.32C31.4489 39.32 36.1952 37.354 39.6946 33.8546C43.194 30.3552 45.16 25.6089 45.16 20.66C45.16 15.7111 43.194 10.9648 39.6946 7.46539C36.1952 3.96596 31.4489 2 26.5 2C21.551 2 16.8048 3.96596 13.3054 7.46539C9.80592 10.9648 7.83997 15.7111 7.83997 20.66Z" stroke="#45413C" stroke-width="0.833333" stroke-linecap="round" stroke-linejoin="round"/>
<path d="M31.17 28.11C29.788 29.0297 28.165 29.5204 26.505 29.5204C24.8449 29.5204 23.2219 29.0297 21.84 28.11" stroke="#45413C" stroke-width="0.833333" stroke-linecap="round"/>
<path d="M40 25.32C40 26.1 38.95 26.72 37.67 26.72C36.39 26.72 35.33 26.1 35.33 25.32C35.33 24.54 36.33 23.92 37.67 23.92C39.01 23.92 40 24.55 40 25.32ZM13 25.32C13 26.1 14 26.72 15.33 26.72C16.66 26.72 17.67 26.1 17.67 25.32C17.67 24.54 16.62 23.92 15.33 23.92C14.04 23.92 13 24.55 13 25.32Z" fill="#FFAA54"/>
<path d="M39.87 23.9201H34.44C33.1635 23.923 31.9276 23.472 30.9531 22.6477C29.9785 21.8233 29.3288 20.6793 29.12 19.4201L28.37 14.9301C28.3064 14.5468 28.3266 14.1543 28.4292 13.7796C28.5318 13.4049 28.7143 13.0569 28.9643 12.7595C29.2142 12.462 29.5255 12.2223 29.877 12.0566C30.2284 11.891 30.6115 11.8035 31 11.8001H43C43.3801 11.7989 43.7561 11.8784 44.1032 12.0331C44.4504 12.1879 44.7608 12.4145 45.014 12.6979C45.2672 12.9814 45.4575 13.3153 45.5723 13.6776C45.6871 14.04 45.7238 14.4225 45.68 14.8001L45.2 19.1401C45.0486 20.4503 44.4229 21.6597 43.441 22.5403C42.4591 23.4209 41.1889 23.9117 39.87 23.9201Z" fill="#656769"/>
<path d="M29.1199 19.4201C29.2434 20.1454 29.5148 20.8376 29.9174 21.4536C30.32 22.0695 30.8451 22.5959 31.4599 23.0001L42.6699 11.8001H30.9999C30.6089 11.7992 30.2224 11.8835 29.8673 12.0472C29.5123 12.2109 29.1971 12.4501 28.9439 12.7481C28.6907 13.046 28.5055 13.3956 28.4012 13.7724C28.2969 14.1493 28.276 14.5443 28.3399 14.9301L29.1199 19.4201Z" fill="#87898C"/>
<path d="M39.87 23.9201H34.44C33.1635 23.923 31.9276 23.472 30.9531 22.6477C29.9785 21.8233 29.3288 20.6793 29.12 19.4201L28.37 14.9301C28.3064 14.5468 28.3266 14.1543 28.4292 13.7796C28.5318 13.4049 28.7143 13.0569 28.9643 12.7595C29.2142 12.462 29.5255 12.2223 29.877 12.0566C30.2284 11.891 30.6115 11.8035 31 11.8001H43C43.3801 11.7989 43.7561 11.8784 44.1032 12.0331C44.4504 12.1879 44.7608 12.4145 45.014 12.6979C45.2672 12.9814 45.4575 13.3153 45.5723 13.6776C45.6871 14.04 45.7238 14.4225 45.68 14.8001L45.2 19.1401C45.0486 20.4503 44.4229 21.6597 43.441 22.5403C42.4591 23.4209 41.1889 23.9117 39.87 23.9201Z" stroke="#45413C" stroke-width="0.833333" stroke-linecap="round" stroke-linejoin="round"/>
<path d="M13.1299 23.92H18.5599C19.8364 23.923 21.0723 23.472 22.0469 22.6477C23.0214 21.8233 23.6712 20.6793 23.8799 19.42L24.6299 14.93C24.6935 14.5468 24.6733 14.1543 24.5707 13.7796C24.4681 13.4049 24.2856 13.0569 24.0357 12.7594C23.7858 12.462 23.4744 12.2222 23.123 12.0566C22.7715 11.891 22.3884 11.8035 21.9999 11.8H9.99994C9.62034 11.8005 9.2451 11.881 8.89871 12.0363C8.55232 12.1916 8.24257 12.4182 7.98967 12.7013C7.73677 12.9844 7.54641 13.3176 7.43101 13.6792C7.31561 14.0409 7.27776 14.4228 7.31994 14.8L7.80994 19.14C7.95696 20.4503 8.57997 21.6609 9.56068 22.542C10.5414 23.4232 11.8115 23.9136 13.1299 23.92Z" fill="#656769"/>
<path d="M7.76994 19.1301C7.87085 20.0042 8.18426 20.8404 8.6828 21.5656C9.18135 22.2907 9.84985 22.8828 10.6299 23.2901L22.1099 11.8101H9.99994C9.62034 11.8105 9.2451 11.891 8.89871 12.0463C8.55232 12.2016 8.24257 12.4282 7.98967 12.7113C7.73677 12.9944 7.54641 13.3276 7.43101 13.6893C7.31561 14.0509 7.27776 14.4328 7.31994 14.8101L7.76994 19.1301Z" fill="#87898C"/>
<path d="M13.1299 23.92H18.5599C19.8364 23.923 21.0723 23.472 22.0469 22.6477C23.0214 21.8233 23.6712 20.6793 23.8799 19.42L24.6299 14.93C24.6935 14.5468 24.6733 14.1543 24.5707 13.7796C24.4681 13.4049 24.2856 13.0569 24.0357 12.7594C23.7858 12.462 23.4744 12.2222 23.123 12.0566C22.7715 11.891 22.3884 11.8035 21.9999 11.8H9.99994C9.62034 11.8005 9.2451 11.881 8.89871 12.0363C8.55232 12.1916 8.24257 12.4182 7.98967 12.7013C7.73677 12.9844 7.54641 13.3176 7.43101 13.6792C7.31561 14.0409 7.27776 14.4228 7.31994 14.8L7.80994 19.14C7.95696 20.4503 8.57997 21.6609 9.56068 22.542C10.5414 23.4232 11.8115 23.9136 13.1299 23.92Z" stroke="#45413C" stroke-width="0.833333" stroke-linecap="round" stroke-linejoin="round"/>
<path d="M29.28 12.46C28.4176 12.0257 27.4655 11.7994 26.5 11.7994C25.5344 11.7994 24.5823 12.0257 23.72 12.46" stroke="#45413C" stroke-width="0.833333" stroke-linecap="round" stroke-linejoin="round"/>
</svg>
