<svg width="48" height="48" viewBox="0 0 48 48" fill="none" xmlns="http://www.w3.org/2000/svg">
<path opacity="0.15" d="M10 44.5C10 44.697 10.3621 44.892 11.0657 45.074C11.7693 45.256 12.8005 45.4214 14.1005 45.5607C15.4005 45.6999 16.9439 45.8104 18.6424 45.8858C20.341 45.9612 22.1615 46 24 46C25.8385 46 27.659 45.9612 29.3576 45.8858C31.0561 45.8104 32.5995 45.6999 33.8995 45.5607C35.1995 45.4214 36.2307 45.256 36.9343 45.074C37.6379 44.892 38 44.697 38 44.5C38 44.303 37.6379 44.108 36.9343 43.926C36.2307 43.744 35.1995 43.5786 33.8995 43.4393C32.5995 43.3001 31.0561 43.1896 29.3576 43.1142C27.659 43.0388 25.8385 43 24 43C22.1615 43 20.341 43.0388 18.6424 43.1142C16.9439 43.1896 15.4005 43.3001 14.1005 43.4393C12.8005 43.5786 11.7693 43.744 11.0657 43.926C10.3621 44.108 10 44.303 10 44.5Z" fill="#45413C"/>
<path d="M34 35.6499C30.8574 37.0763 27.451 37.8291 24 37.8599C20.549 37.8291 17.1426 37.0763 14 35.6499C20.61 34.6632 27.33 34.6632 33.94 35.6499H34Z" fill="#915E3A" stroke="#45413C" stroke-linecap="round" stroke-linejoin="round"/>
<path d="M36.37 40.43C36.5346 40.7609 36.5695 41.1415 36.4677 41.4968C36.3659 41.8521 36.1349 42.1565 35.82 42.35C34.06 43.44 30.21 45.25 24 45.25C17.79 45.25 13.94 43.44 12.18 42.35C11.8651 42.1565 11.6341 41.8521 11.5323 41.4968C11.4305 41.1415 11.4654 40.7609 11.63 40.43L14 35.65C17.1426 37.0764 20.549 37.8292 24 37.86C27.451 37.8292 30.8574 37.0764 34 35.65L36.37 40.43Z" fill="#DEA47A"/>
<path d="M24 40.56C27.8893 40.5157 31.7433 39.8159 35.4 38.49L34 35.65C30.8574 37.0764 27.451 37.8292 24 37.86C20.549 37.8292 17.1426 37.0764 14 35.65L12.6 38.49C16.2566 39.8159 20.1106 40.5157 24 40.56Z" fill="#BF8256"/>
<path d="M36.37 40.43C36.5346 40.7609 36.5695 41.1415 36.4677 41.4968C36.3659 41.8521 36.1349 42.1565 35.82 42.35C34.06 43.44 30.21 45.25 24 45.25C17.79 45.25 13.94 43.44 12.18 42.35C11.8651 42.1565 11.6341 41.8521 11.5323 41.4968C11.4305 41.1415 11.4654 40.7609 11.63 40.43L14 35.65C17.1426 37.0764 20.549 37.8292 24 37.86C27.451 37.8292 30.8574 37.0764 34 35.65L36.37 40.43Z" stroke="#45413C" stroke-linecap="round" stroke-linejoin="round"/>
<path d="M8.84998 20.5C8.84998 22.4895 9.24184 24.4595 10.0032 26.2976C10.7646 28.1357 11.8805 29.8058 13.2873 31.2126C14.6941 32.6195 16.3642 33.7354 18.2023 34.4968C20.0404 35.2581 22.0104 35.65 24 35.65C25.9895 35.65 27.9595 35.2581 29.7976 34.4968C31.6357 33.7354 33.3058 32.6195 34.7126 31.2126C36.1195 29.8058 37.2354 28.1357 37.9968 26.2976C38.7581 24.4595 39.15 22.4895 39.15 20.5C39.15 18.5104 38.7581 16.5404 37.9968 14.7023C37.2354 12.8642 36.1195 11.1941 34.7126 9.78731C33.3058 8.3805 31.6357 7.26456 29.7976 6.5032C27.9595 5.74184 25.9895 5.34998 24 5.34998C22.0104 5.34998 20.0404 5.74184 18.2023 6.5032C16.3642 7.26456 14.6941 8.3805 13.2873 9.78731C11.8805 11.1941 10.7646 12.8642 10.0032 14.7023C9.24184 16.5404 8.84998 18.5104 8.84998 20.5Z" fill="#BF8DF2"/>
<path d="M24 5.34998C21.0036 5.34998 18.0745 6.23851 15.5831 7.90321C13.0917 9.56791 11.1499 11.934 10.0032 14.7023C8.85654 17.4706 8.55652 20.5168 9.14109 23.4556C9.72565 26.3944 11.1685 29.0939 13.2873 31.2126C15.4061 33.3314 18.1056 34.7743 21.0444 35.3589C23.9832 35.9434 27.0293 35.6434 29.7976 34.4968C32.5659 33.3501 34.932 31.4083 36.5967 28.9169C38.2614 26.4255 39.15 23.4964 39.15 20.5C39.15 16.4819 37.5538 12.6285 34.7127 9.78731C31.8715 6.94613 28.018 5.34998 24 5.34998ZM24 30.1C21.589 30.1 19.2322 29.385 17.2276 28.0456C15.2229 26.7061 13.6605 24.8023 12.7379 22.5749C11.8153 20.3475 11.5739 17.8965 12.0442 15.5318C12.5146 13.1672 13.6755 10.9951 15.3804 9.29034C17.0852 7.58554 19.2572 6.42456 21.6218 5.9542C23.9865 5.48385 26.4375 5.72525 28.6649 6.64788C30.8923 7.57052 32.7961 9.13294 34.1356 11.1376C35.4751 13.1422 36.19 15.499 36.19 17.91C36.19 21.143 34.9057 24.2435 32.6196 26.5296C30.3335 28.8157 27.233 30.1 24 30.1Z" fill="#9F5AE5"/>
<path d="M8.84998 20.5C8.84998 22.4895 9.24184 24.4595 10.0032 26.2976C10.7646 28.1357 11.8805 29.8058 13.2873 31.2126C14.6941 32.6195 16.3642 33.7354 18.2023 34.4968C20.0404 35.2581 22.0104 35.65 24 35.65C25.9895 35.65 27.9595 35.2581 29.7976 34.4968C31.6357 33.7354 33.3058 32.6195 34.7126 31.2126C36.1195 29.8058 37.2354 28.1357 37.9968 26.2976C38.7581 24.4595 39.15 22.4895 39.15 20.5C39.15 18.5104 38.7581 16.5404 37.9968 14.7023C37.2354 12.8642 36.1195 11.1941 34.7126 9.78731C33.3058 8.3805 31.6357 7.26456 29.7976 6.5032C27.9595 5.74184 25.9895 5.34998 24 5.34998C22.0104 5.34998 20.0404 5.74184 18.2023 6.5032C16.3642 7.26456 14.6941 8.3805 13.2873 9.78731C11.8805 11.1941 10.7646 12.8642 10.0032 14.7023C9.24184 16.5404 8.84998 18.5104 8.84998 20.5Z" stroke="#45413C" stroke-linecap="round" stroke-linejoin="round"/>
<path d="M26.22 15.33C26.22 16.3087 26.6088 17.2472 27.3008 17.9393C27.9928 18.6313 28.9314 19.02 29.91 19.02C30.8887 19.02 31.8272 18.6313 32.5193 17.9393C33.2113 17.2472 33.6 16.3087 33.6 15.33C33.6 14.3514 33.2113 13.4128 32.5193 12.7208C31.8272 12.0288 30.8887 11.64 29.91 11.64C28.9314 11.64 27.9928 12.0288 27.3008 12.7208C26.6088 13.4128 26.22 14.3514 26.22 15.33ZM21.78 17.17C21.78 17.4644 21.897 17.7468 22.1051 17.9549C22.3133 18.1631 22.5956 18.28 22.89 18.28C23.1844 18.28 23.4668 18.1631 23.6749 17.9549C23.8831 17.7468 24 17.4644 24 17.17C24 16.8756 23.8831 16.5933 23.6749 16.3851C23.4668 16.177 23.1844 16.06 22.89 16.06C22.5956 16.06 22.3133 16.177 22.1051 16.3851C21.897 16.5933 21.78 16.8756 21.78 17.17ZM21.78 11.26C21.78 11.7507 21.9749 12.2212 22.3219 12.5682C22.6688 12.9151 23.1394 13.11 23.63 13.11C24.1207 13.11 24.5912 12.9151 24.9382 12.5682C25.2851 12.2212 25.48 11.7507 25.48 11.26C25.48 10.7694 25.2851 10.2988 24.9382 9.95189C24.5912 9.60494 24.1207 9.41003 23.63 9.41003C23.1394 9.41003 22.6688 9.60494 22.3219 9.95189C21.9749 10.2988 21.78 10.7694 21.78 11.26Z" fill="#DABFF5"/>
<path d="M40.62 28.26C40.4749 29.1668 40.1364 30.0318 39.6273 30.7962C39.1183 31.5606 38.4508 32.2065 37.67 32.69M36.93 34.91C38.4052 34.6872 39.732 33.8889 40.62 32.69M5.89999 15.7C5.89999 15.7 6.63999 12 8.84999 10.52M4.41999 12.74C4.00925 14.4389 4.00925 16.2112 4.41999 17.91" stroke="#45413C" stroke-linecap="round" stroke-linejoin="round"/>
<path d="M42 8.42001C42.0764 8.09674 42.2413 7.80113 42.4762 7.56624C42.7111 7.33135 43.0067 7.16646 43.33 7.09001L46 6.48001C46.0512 6.47055 46.0973 6.44326 46.1303 6.40298C46.1632 6.3627 46.1809 6.31205 46.18 6.26001C46.1805 6.20914 46.1625 6.15981 46.1294 6.12119C46.0963 6.08257 46.0503 6.05727 46 6.05001L43.34 5.43001C43.0139 5.35739 42.715 5.19395 42.4778 4.95859C42.2407 4.72323 42.075 4.42557 42 4.10001L41.38 1.44001C41.3709 1.39051 41.345 1.34564 41.3068 1.31288C41.2686 1.28012 41.2203 1.26146 41.17 1.26001C41.1184 1.26102 41.0687 1.27931 41.0289 1.31196C40.989 1.3446 40.9612 1.38969 40.95 1.44001L40.34 4.10001C40.2628 4.42454 40.0964 4.72104 39.8596 4.95604C39.6228 5.19105 39.3251 5.35521 39 5.43001L36.33 6.05001C36.2815 6.05941 36.2378 6.08563 36.2067 6.12404C36.1756 6.16245 36.1591 6.2106 36.16 6.26001C36.1587 6.31065 36.1749 6.36019 36.2058 6.40027C36.2368 6.44035 36.2807 6.46852 36.33 6.48001L39 7.09001C39.3224 7.16597 39.6171 7.33088 39.8504 7.566C40.0838 7.80112 40.2465 8.09701 40.32 8.42001L41 11.09C41.0115 11.1393 41.0396 11.1832 41.0797 11.2142C41.1198 11.2451 41.1693 11.2613 41.22 11.26C41.2694 11.2609 41.3175 11.2444 41.356 11.2133C41.3944 11.1822 41.4206 11.1385 41.43 11.09L42 8.42001ZM5.81999 32.31L7.90999 31.62C7.94115 31.5998 7.96607 31.5713 7.98196 31.5378C7.99786 31.5042 8.0041 31.4669 7.99999 31.43C8.00156 31.3898 7.98961 31.3502 7.96605 31.3176C7.94248 31.2849 7.90866 31.2612 7.86999 31.25L6.14999 30.68C6.03538 30.6399 5.93156 30.574 5.84658 30.4872C5.7616 30.4005 5.69775 30.2954 5.65999 30.18L5.07999 28.46C5.06884 28.4213 5.04505 28.3875 5.01242 28.3639C4.97979 28.3404 4.9402 28.3284 4.89999 28.33C4.85878 28.3295 4.81841 28.3417 4.7844 28.3649C4.7504 28.3882 4.7244 28.4214 4.70999 28.46L4.13999 30.18C4.10053 30.2961 4.03492 30.4016 3.94823 30.4883C3.86153 30.5749 3.75607 30.6406 3.63999 30.68L1.99999 31.25C1.96032 31.2608 1.92522 31.2842 1.89998 31.3167C1.87474 31.3491 1.8607 31.3889 1.85999 31.43C1.86015 31.4724 1.87381 31.5137 1.89897 31.5479C1.92414 31.582 1.95951 31.6073 1.99999 31.62L3.70999 32.19C3.82682 32.2281 3.93301 32.2932 4.0199 32.3801C4.10679 32.467 4.17192 32.5732 4.20999 32.69L4.77999 34.4C4.79271 34.4405 4.81798 34.4759 4.85213 34.501C4.88629 34.5262 4.92756 34.5398 4.96999 34.54C5.0111 34.5393 5.05087 34.5253 5.08332 34.5C5.11578 34.4748 5.13917 34.4397 5.14999 34.4L5.81999 32.31Z" fill="white" stroke="#45413C" stroke-linecap="round" stroke-linejoin="round"/>
</svg>
