<svg width="48" height="48" viewBox="0 0 48 48" fill="none" xmlns="http://www.w3.org/2000/svg">
<path opacity="0.15" d="M4.10999 44.0601C4.10999 44.5746 6.21712 45.0681 9.96785 45.4319C13.7186 45.7957 18.8057 46.0001 24.11 46.0001C29.4143 46.0001 34.5014 45.7957 38.2521 45.4319C42.0028 45.0681 44.11 44.5746 44.11 44.0601C44.11 43.5456 42.0028 43.0522 38.2521 42.6883C34.5014 42.3245 29.4143 42.1201 24.11 42.1201C18.8057 42.1201 13.7186 42.3245 9.96785 42.6883C6.21712 43.0522 4.10999 43.5456 4.10999 44.0601Z" fill="#45413C"/>
<path d="M42.5 20.5801L4 24.2701L5.72 42.2701C5.73628 42.4389 5.78568 42.6028 5.86538 42.7525C5.94508 42.9022 6.05351 43.0347 6.18448 43.1424C6.31544 43.2502 6.46636 43.331 6.6286 43.3804C6.79084 43.4298 6.96123 43.4466 7.13 43.4301L43.13 39.9801C43.2984 39.965 43.4621 39.9168 43.6117 39.8381C43.7613 39.7595 43.8939 39.652 44.0018 39.5218C44.1096 39.3917 44.1906 39.2414 44.2401 39.0798C44.2896 38.9181 44.3065 38.7483 44.29 38.5801L42.5 20.5801Z" fill="#BF8256" stroke="#45413C" stroke-linecap="round" stroke-linejoin="round"/>
<path d="M4.724 31.9799L43.247 28.2849L43.863 34.7049L5.34 38.4009L4.724 31.9799Z" fill="#FFE3CF" stroke="#45413C" stroke-linecap="round" stroke-linejoin="round"/>
<path d="M21.23 28.4499C21.181 27.9394 21.3367 27.4303 21.6631 27.0346C21.9894 26.6389 22.4595 26.389 22.97 26.3399C23.4806 26.2909 23.9897 26.4466 24.3854 26.7729C24.7811 27.0993 25.031 27.5694 25.08 28.0799L25.14 28.7199C25.1563 28.8887 25.2057 29.0527 25.2854 29.2024C25.3651 29.3521 25.4736 29.4846 25.6045 29.5923C25.7355 29.7 25.8864 29.7809 26.0486 29.8303C26.2109 29.8796 26.3813 29.8965 26.55 29.8799C26.7184 29.8649 26.8821 29.8167 27.0318 29.738C27.1814 29.6594 27.314 29.5518 27.4218 29.4217C27.5297 29.2915 27.6107 29.1413 27.6601 28.9796C27.7096 28.818 27.7266 28.6482 27.71 28.4799L27.65 27.8399C27.6328 27.6702 27.6837 27.5006 27.7915 27.3684C27.8994 27.2361 28.0553 27.1522 28.225 27.1349C28.3948 27.1177 28.5644 27.1686 28.6966 27.2764C28.8288 27.3843 28.9128 27.5402 28.93 27.7099L29.1 29.4999C29.1413 30.1327 29.4047 30.7305 29.8438 31.1879C30.2829 31.6453 30.8695 31.9329 31.5 31.9999C31.874 32.0264 32.2493 31.971 32.5997 31.8376C32.9501 31.7042 33.2672 31.496 33.529 31.2276C33.7907 30.9592 33.9908 30.637 34.1154 30.2833C34.2399 29.9297 34.2859 29.5532 34.25 29.1799L34 25.9399C34.0243 26.1927 34.0982 26.4383 34.2174 26.6625C34.3366 26.8868 34.4988 27.0854 34.6947 27.2469C34.8906 27.4085 35.1165 27.5299 35.3593 27.6042C35.6022 27.6785 35.8573 27.7042 36.1101 27.6799C36.3628 27.6556 36.6084 27.5818 36.8326 27.4626C37.0569 27.3434 37.2555 27.1812 37.417 26.9853C37.5786 26.7894 37.7 26.5635 37.7743 26.3207C37.8486 26.0778 37.8743 25.8227 37.85 25.5699L37.7901 24.9199C37.7735 24.7517 37.7905 24.5819 37.84 24.4202C37.8894 24.2586 37.9704 24.1084 38.0783 23.9782C38.1861 23.848 38.3187 23.7405 38.4683 23.6619C38.618 23.5832 38.7817 23.535 38.9501 23.5199C39.1188 23.5034 39.2892 23.5203 39.4515 23.5696C39.6137 23.619 39.7646 23.6998 39.8956 23.8076C40.0265 23.9153 40.135 24.0478 40.2147 24.1975C40.2944 24.3472 40.3438 24.5111 40.3601 24.6799L40.43 25.9999C40.495 26.6883 40.7436 27.3466 41.15 27.906C41.5563 28.4654 42.1055 28.9054 42.7401 29.1799C42.9455 29.2627 43.169 29.2906 43.3885 29.2611C43.608 29.2316 43.8162 29.1456 43.9925 29.0116C44.1689 28.8776 44.3074 28.7001 44.3946 28.4965C44.4819 28.2928 44.5147 28.0701 44.4901 27.8499L43.7901 20.4999C43.4301 16.7099 35.7101 11.8199 25.7901 11.5699C25.0861 11.5602 24.3934 11.7472 23.7901 12.1099L4.11005 23.5599C3.69323 23.8085 3.35431 24.1688 3.13163 24.6C2.90896 25.0312 2.81142 25.5162 2.85005 25.9999L3.73005 35.1999C3.73942 35.2951 3.76966 35.387 3.81864 35.4692C3.86761 35.5513 3.93411 35.6216 4.01338 35.6751C4.09265 35.7286 4.18274 35.7639 4.27724 35.7786C4.37173 35.7932 4.4683 35.7869 4.56005 35.7599C5.39352 35.5086 6.1172 34.9822 6.61301 34.2666C7.10881 33.5511 7.34748 32.6886 7.29005 31.8199C7.23876 31.3655 7.34478 30.9072 7.59044 30.5214C7.83609 30.1356 8.20655 29.8457 8.64005 29.6999C8.91446 29.6156 9.20417 29.5933 9.48827 29.6345C9.77238 29.6757 10.0438 29.7794 10.283 29.9382C10.5221 30.097 10.723 30.3069 10.8713 30.5528C11.0195 30.7986 11.1113 31.0743 11.14 31.3599L11.2 32.0099C11.2243 32.2627 11.2982 32.5083 11.4174 32.7325C11.5366 32.9568 11.6988 33.1554 11.8947 33.3169C12.0906 33.4785 12.3165 33.5999 12.5593 33.6742C12.8021 33.7485 13.0573 33.7742 13.31 33.7499C13.5628 33.7256 13.8084 33.6518 14.0326 33.5326C14.2569 33.4134 14.4555 33.2512 14.617 33.0553C14.7786 32.8594 14.9 32.6335 14.9743 32.3907C15.0486 32.1478 15.0743 31.8927 15.05 31.6399L14.93 30.3499C14.9141 30.1802 14.9663 30.0111 15.0751 29.8798C15.1838 29.7485 15.3403 29.6659 15.51 29.6499C15.6798 29.634 15.8489 29.6862 15.9802 29.795C16.1114 29.9037 16.1941 30.0602 16.21 30.2299L16.38 31.9999C16.4264 32.6269 16.6926 33.2174 17.1316 33.6674C17.5707 34.1174 18.1544 34.3981 18.78 34.4599C19.154 34.4864 19.5293 34.431 19.8797 34.2976C20.2301 34.1642 20.5472 33.956 20.809 33.6876C21.0707 33.4192 21.2708 33.097 21.3954 32.7433C21.5199 32.3897 21.5659 32.0132 21.5301 31.6399L21.23 28.4499Z" fill="#FF6242"/>
<path d="M21.23 28.4499C21.181 27.9394 21.3367 27.4303 21.6631 27.0346C21.9894 26.6389 22.4595 26.389 22.97 26.3399C23.4806 26.2909 23.9897 26.4466 24.3854 26.7729C24.7811 27.0993 25.031 27.5694 25.08 28.0799L25.14 28.7199C25.1563 28.8887 25.2057 29.0527 25.2854 29.2024C25.3651 29.3521 25.4736 29.4846 25.6045 29.5923C25.7355 29.7 25.8864 29.7809 26.0486 29.8303C26.2109 29.8796 26.3813 29.8965 26.55 29.8799C26.7184 29.8649 26.8821 29.8167 27.0318 29.738C27.1814 29.6594 27.314 29.5518 27.4218 29.4217C27.5297 29.2915 27.6107 29.1413 27.6601 28.9796C27.7096 28.818 27.7266 28.6482 27.71 28.4799L27.65 27.8399C27.6328 27.6702 27.6837 27.5006 27.7915 27.3684C27.8994 27.2361 28.0553 27.1522 28.225 27.1349C28.3948 27.1177 28.5644 27.1686 28.6966 27.2764C28.8288 27.3843 28.9128 27.5402 28.93 27.7099L29.1 29.4999C29.1413 30.1327 29.4047 30.7305 29.8438 31.1879C30.2829 31.6453 30.8695 31.9329 31.5 31.9999C31.874 32.0264 32.2493 31.971 32.5997 31.8376C32.9501 31.7042 33.2672 31.496 33.529 31.2276C33.7907 30.9592 33.9908 30.637 34.1154 30.2833C34.2399 29.9297 34.2859 29.5532 34.25 29.1799L34 25.9399C34.0243 26.1927 34.0982 26.4383 34.2174 26.6625C34.3366 26.8868 34.4988 27.0854 34.6947 27.2469C34.8906 27.4085 35.1165 27.5299 35.3593 27.6042C35.6022 27.6785 35.8573 27.7042 36.1101 27.6799C36.3628 27.6556 36.6084 27.5818 36.8326 27.4626C37.0569 27.3434 37.2555 27.1812 37.417 26.9853C37.5786 26.7894 37.7 26.5635 37.7743 26.3207C37.8486 26.0778 37.8743 25.8227 37.85 25.5699L37.7901 24.9199C37.7735 24.7517 37.7905 24.5819 37.84 24.4202C37.8894 24.2586 37.9704 24.1084 38.0783 23.9782C38.1861 23.848 38.3187 23.7405 38.4683 23.6619C38.618 23.5832 38.7817 23.535 38.9501 23.5199C39.1188 23.5034 39.2892 23.5203 39.4515 23.5696C39.6137 23.619 39.7646 23.6998 39.8956 23.8076C40.0265 23.9153 40.135 24.0478 40.2147 24.1975C40.2944 24.3472 40.3438 24.5111 40.3601 24.6799L40.43 25.9999C40.495 26.6883 40.7436 27.3466 41.15 27.906C41.5563 28.4654 42.1055 28.9054 42.7401 29.1799C42.9455 29.2627 43.169 29.2906 43.3885 29.2611C43.608 29.2316 43.8162 29.1456 43.9925 29.0116C44.1689 28.8776 44.3074 28.7001 44.3946 28.4965C44.4819 28.2928 44.5147 28.0701 44.4901 27.8499L43.7901 20.4999C43.4301 16.7099 35.7101 11.8199 25.7901 11.5699C25.0861 11.5602 24.3934 11.7472 23.7901 12.1099L4.11005 23.5599C3.69323 23.8085 3.35431 24.1688 3.13163 24.6C2.90896 25.0312 2.81142 25.5162 2.85005 25.9999L3.73005 35.1999C3.73942 35.2951 3.76966 35.387 3.81864 35.4692C3.86761 35.5513 3.93411 35.6216 4.01338 35.6751C4.09265 35.7286 4.18274 35.7639 4.27724 35.7786C4.37173 35.7932 4.4683 35.7869 4.56005 35.7599C5.39352 35.5086 6.1172 34.9822 6.61301 34.2666C7.10881 33.5511 7.34748 32.6886 7.29005 31.8199C7.23876 31.3655 7.34478 30.9072 7.59044 30.5214C7.83609 30.1356 8.20655 29.8457 8.64005 29.6999C8.91446 29.6156 9.20417 29.5933 9.48827 29.6345C9.77238 29.6757 10.0438 29.7794 10.283 29.9382C10.5221 30.097 10.723 30.3069 10.8713 30.5528C11.0195 30.7986 11.1113 31.0743 11.14 31.3599L11.2 32.0099C11.2243 32.2627 11.2982 32.5083 11.4174 32.7325C11.5366 32.9568 11.6988 33.1554 11.8947 33.3169C12.0906 33.4785 12.3165 33.5999 12.5593 33.6742C12.8021 33.7485 13.0573 33.7742 13.31 33.7499C13.5628 33.7256 13.8084 33.6518 14.0326 33.5326C14.2569 33.4134 14.4555 33.2512 14.617 33.0553C14.7786 32.8594 14.9 32.6335 14.9743 32.3907C15.0486 32.1478 15.0743 31.8927 15.05 31.6399L14.93 30.3499C14.9141 30.1802 14.9663 30.0111 15.0751 29.8798C15.1838 29.7485 15.3403 29.6659 15.51 29.6499C15.6798 29.634 15.8489 29.6862 15.9802 29.795C16.1114 29.9037 16.1941 30.0602 16.21 30.2299L16.38 31.9999C16.4264 32.6269 16.6926 33.2174 17.1316 33.6674C17.5707 34.1174 18.1544 34.3981 18.78 34.4599C19.154 34.4864 19.5293 34.431 19.8797 34.2976C20.2301 34.1642 20.5472 33.956 20.809 33.6876C21.0707 33.4192 21.2708 33.097 21.3954 32.7433C21.5199 32.3897 21.5659 32.0132 21.5301 31.6399L21.23 28.4499Z" stroke="#45413C" stroke-linecap="round" stroke-linejoin="round"/>
<path d="M9.10999 23.7801L39.94 20.8201" stroke="#E04122" stroke-linecap="round" stroke-linejoin="round"/>
<path d="M35.06 10.5601C34.89 7.36011 31.39 2.35011 28.19 2.56011C24.99 2.77011 22.01 8.06011 22.19 11.2601C22.37 14.4601 25.73 16.9001 28.93 16.7301C32.13 16.5601 35.22 13.7601 35.06 10.5601Z" fill="#FF6242" stroke="#45413C" stroke-linecap="round" stroke-linejoin="round"/>
<path d="M24.6801 9.79989L24.7501 11.0899M26.4201 5.83989L26.4801 7.12989M28.5501 9.60989L28.6201 10.8899M30.2801 5.63989L30.3501 6.92989M32.4201 9.40989L32.4801 10.6999" stroke="#45413C" stroke-linecap="round" stroke-linejoin="round"/>
<path d="M36.69 14C36.86 15.78 33.55 17.54 29.29 18C25.03 18.46 21.45 17.3 21.29 15.53C21.2608 15.2765 21.2818 15.0197 21.352 14.7744C21.4222 14.529 21.5401 14.2999 21.6989 14.1002C21.8577 13.9005 22.0544 13.7341 22.2777 13.6105C22.501 13.4869 22.7464 13.4086 23 13.38C24.06 13.28 24.95 13.38 25.05 14.48C24.85 12.35 26.47 11.1 28.6 10.9C30.73 10.7 32.55 11.61 32.76 13.74C32.65 12.68 33.5 12.37 34.56 12.27C34.8134 12.2437 35.0696 12.2676 35.3138 12.3403C35.5581 12.413 35.7856 12.5331 35.9834 12.6937C36.1812 12.8544 36.3454 13.0524 36.4666 13.2766C36.5879 13.5007 36.6638 13.7465 36.69 14Z" fill="#FFE3CF" stroke="#45413C" stroke-linecap="round" stroke-linejoin="round"/>
</svg>
