<svg width="40" height="40" viewBox="0 0 40 40" fill="none" xmlns="http://www.w3.org/2000/svg">
<path d="M11.2916 15.9833H14.8666V34.5833H11.2916V15.9833Z" fill="#DEBB7E"/>
<path d="M11.2916 28.9666C11.6269 29.129 11.9941 29.2144 12.3666 29.2166C12.8564 29.2169 13.3355 29.0733 13.7444 28.8037C14.1533 28.5341 14.474 28.1503 14.6666 27.6999L14.8666 27.7499V15.9833H11.2916V28.9666Z" fill="#B89558"/>
<path d="M11.2916 15.9833H14.8666V34.5833H11.2916V15.9833Z" stroke="#45413C" stroke-width="0.833333" stroke-linecap="round" stroke-linejoin="round"/>
<path d="M12.6333 7.83337C10.4299 7.83249 8.30847 8.66845 6.698 10.1722C5.08754 11.6759 4.10828 13.7351 3.95829 15.9334C3.18843 16.2355 2.49649 16.7071 1.93379 17.3131C1.37109 17.9192 0.952076 18.6442 0.707843 19.4343C0.463609 20.2244 0.400422 21.0594 0.522971 21.8773C0.645519 22.6951 0.950656 23.4749 1.41574 24.1588C1.88083 24.8426 2.49393 25.4129 3.20955 25.8275C3.92517 26.242 4.72495 26.49 5.54954 26.5532C6.37412 26.6164 7.20236 26.4932 7.9728 26.1925C8.74323 25.8919 9.43608 25.4217 9.99995 24.8167C10.8607 25.0987 11.7608 25.2422 12.6666 25.2417C14.9285 25.1717 17.0743 24.224 18.6495 22.5993C20.2247 20.9746 21.1056 18.8005 21.1056 16.5375C21.1056 14.2746 20.2247 12.1005 18.6495 10.4758C17.0743 8.85109 14.9285 7.90337 12.6666 7.83337H12.6333Z" fill="#6DD627"/>
<path d="M3.95831 18.25C4.09912 16.096 5.03642 14.0715 6.58777 12.5705C8.13911 11.0695 10.1935 10.1995 12.351 10.1299C14.5084 10.0602 16.6147 10.7959 18.2596 12.1936C19.9045 13.5914 20.9705 15.5513 21.25 17.6917C21.3032 17.3079 21.331 16.9209 21.3333 16.5334C21.3187 14.2878 20.4363 12.1349 18.8709 10.5249C17.3054 8.91498 15.178 7.9727 12.9337 7.8952C10.6895 7.8177 8.50217 8.61099 6.82936 10.1091C5.15654 11.6073 4.12779 13.6942 3.95831 15.9334C2.72304 16.3995 1.69782 17.2963 1.07151 18.4586C0.445192 19.6209 0.259975 20.9703 0.549973 22.2584C0.737204 21.3584 1.14737 20.5198 1.74285 19.8195C2.33834 19.1191 3.10011 18.5795 3.95831 18.25Z" fill="#9CEB60"/>
<path d="M12.6333 7.83337C10.4299 7.83249 8.30847 8.66845 6.698 10.1722C5.08754 11.6759 4.10828 13.7351 3.95829 15.9334C3.18843 16.2355 2.49649 16.7071 1.93379 17.3131C1.37109 17.9192 0.952076 18.6442 0.707843 19.4343C0.463609 20.2244 0.400422 21.0594 0.522971 21.8773C0.645519 22.6951 0.950656 23.4749 1.41574 24.1588C1.88083 24.8426 2.49393 25.4129 3.20955 25.8275C3.92517 26.242 4.72495 26.49 5.54954 26.5532C6.37412 26.6164 7.20236 26.4932 7.9728 26.1925C8.74323 25.8919 9.43608 25.4217 9.99995 24.8167C10.8607 25.0987 11.7608 25.2422 12.6666 25.2417C14.9285 25.1717 17.0743 24.224 18.6495 22.5993C20.2247 20.9746 21.1056 18.8005 21.1056 16.5375C21.1056 14.2746 20.2247 12.1005 18.6495 10.4758C17.0743 8.85109 14.9285 7.90337 12.6666 7.83337H12.6333Z" stroke="#45413C" stroke-width="0.833333" stroke-linecap="round" stroke-linejoin="round"/>
<path d="M33.9166 20.4334L24.1666 14.75C23.9474 14.6235 23.6988 14.5569 23.4458 14.5569C23.1927 14.5569 22.9441 14.6235 22.7249 14.75L12.9916 20.4334C12.7076 20.6002 12.5015 20.8731 12.4187 21.1919C12.3359 21.5107 12.3831 21.8494 12.5499 22.1334C12.7168 22.4174 12.9897 22.6235 13.3085 22.7063C13.6273 22.7891 13.9659 22.7419 14.2499 22.575L23.4166 17.2084L32.6666 22.575C32.9493 22.7203 33.2769 22.7516 33.5819 22.6626C33.887 22.5736 34.1463 22.371 34.3065 22.0966C34.4667 21.8221 34.5156 21.4967 34.443 21.1873C34.3705 20.8778 34.1821 20.608 33.9166 20.4334Z" fill="#FF6242"/>
<path d="M12.6 22.2C12.705 22.0508 12.838 21.9235 12.9916 21.825L22.7333 16.15C22.951 16.0193 23.2002 15.9502 23.4541 15.9502C23.7081 15.9502 23.9572 16.0193 24.175 16.15L33.9166 21.825C34.0721 21.9211 34.2055 22.0489 34.3083 22.2C34.3493 22.1525 34.383 22.0991 34.4083 22.0417C34.545 21.7612 34.5703 21.4392 34.4791 21.1407C34.3879 20.8423 34.1869 20.5895 33.9166 20.4334L24.1666 14.75C23.9475 14.6235 23.6989 14.5569 23.4458 14.5569C23.1927 14.5569 22.9441 14.6235 22.725 14.75L12.9916 20.4334C12.7243 20.5922 12.5258 20.8451 12.4349 21.1425C12.3439 21.4399 12.3672 21.7605 12.5 22.0417C12.5283 22.0974 12.5618 22.1504 12.6 22.2Z" fill="#FF866E"/>
<path d="M33.9166 20.4334L24.1666 14.75C23.9474 14.6235 23.6988 14.5569 23.4458 14.5569C23.1927 14.5569 22.9441 14.6235 22.7249 14.75L12.9916 20.4334C12.7076 20.6002 12.5015 20.8731 12.4187 21.1919C12.3359 21.5107 12.3831 21.8494 12.5499 22.1334C12.7168 22.4174 12.9897 22.6235 13.3085 22.7063C13.6273 22.7891 13.9659 22.7419 14.2499 22.575L23.4166 17.2084L32.6666 22.575C32.9493 22.7203 33.2769 22.7516 33.5819 22.6626C33.887 22.5736 34.1463 22.371 34.3065 22.0966C34.4667 21.8221 34.5156 21.4967 34.443 21.1873C34.3705 20.8778 34.1821 20.608 33.9166 20.4334Z" stroke="#45413C" stroke-width="0.833333" stroke-linecap="round" stroke-linejoin="round"/>
<path opacity="0.15" d="M4.5 35.4166C4.5 35.5808 4.9533 35.7433 5.83401 35.895C6.71472 36.0466 8.00561 36.1844 9.63295 36.3005C11.2603 36.4166 13.1922 36.5087 15.3185 36.5715C17.4447 36.6343 19.7236 36.6666 22.025 36.6666C24.3264 36.6666 26.6053 36.6343 28.7315 36.5715C30.8578 36.5087 32.7897 36.4166 34.417 36.3005C36.0444 36.1844 37.3353 36.0466 38.216 35.895C39.0967 35.7433 39.55 35.5808 39.55 35.4166C39.55 35.0851 37.7036 34.7672 34.417 34.5327C31.1305 34.2983 26.6729 34.1666 22.025 34.1666C17.3771 34.1666 12.9195 34.2983 9.63295 34.5327C6.34638 34.7672 4.5 35.0851 4.5 35.4166Z" fill="#45413C"/>
<path d="M32.0417 34.5834H14.8667V22.2167L23.4584 17.2084L32.0417 22.2167V34.5834Z" fill="#FFFACF"/>
<path d="M23.4584 17.2084L14.8667 22.2167V24.2167L23.4584 19.2084L32.0417 24.2167V22.2167L23.4584 17.2084Z" fill="#FFF48C"/>
<path d="M32.0417 34.5834H14.8667V22.2167L23.4584 17.2084L32.0417 22.2167V34.5834Z" stroke="#45413C" stroke-width="0.833333" stroke-linecap="round" stroke-linejoin="round"/>
<path d="M17.0167 32.7916H23.8167C24.0068 32.7916 24.1891 32.8671 24.3235 33.0015C24.4579 33.1359 24.5334 33.3182 24.5334 33.5083V34.5833H16.3V33.5083C16.3 33.3182 16.3756 33.1359 16.51 33.0015C16.6444 32.8671 16.8266 32.7916 17.0167 32.7916Z" fill="#E0E0E0" stroke="#45413C" stroke-width="0.833333" stroke-linecap="round" stroke-linejoin="round"/>
<path d="M18.0917 24.2084H22.7417C22.9317 24.2084 23.114 24.2839 23.2484 24.4183C23.3828 24.5527 23.4583 24.735 23.4583 24.925V32.7917H17.375V24.925C17.375 24.735 17.4505 24.5527 17.5849 24.4183C17.7193 24.2839 17.9016 24.2084 18.0917 24.2084Z" fill="#BF8256"/>
<path d="M22.7417 24.2084H18.0917C17.9016 24.2084 17.7194 24.2839 17.585 24.4183C17.4506 24.5527 17.375 24.735 17.375 24.925V26.3584C17.3739 26.2639 17.3917 26.1703 17.4273 26.0828C17.4629 25.9953 17.5157 25.9159 17.5825 25.8491C17.6492 25.7824 17.7287 25.7296 17.8161 25.694C17.9036 25.6584 17.9973 25.6406 18.0917 25.6417H22.7417C22.9318 25.6417 23.1141 25.7172 23.2485 25.8516C23.3829 25.986 23.4584 26.1683 23.4584 26.3584V24.925C23.4562 24.7356 23.38 24.5546 23.2461 24.4207C23.1121 24.2867 22.9311 24.2105 22.7417 24.2084Z" fill="#915E3A"/>
<path d="M18.0917 24.2084H22.7417C22.9317 24.2084 23.114 24.2839 23.2484 24.4183C23.3828 24.5527 23.4583 24.735 23.4583 24.925V32.7917H17.375V24.925C17.375 24.735 17.4505 24.5527 17.5849 24.4183C17.7193 24.2839 17.9016 24.2084 18.0917 24.2084Z" stroke="#45413C" stroke-width="0.833333" stroke-linecap="round" stroke-linejoin="round"/>
<path d="M25.6 24.2084H29.8916V28.5H25.6V24.2084Z" fill="#00B8F0"/>
<path d="M29.1666 24.2084H26.3166C26.1272 24.2105 25.9462 24.2867 25.8123 24.4207C25.6783 24.5546 25.6021 24.7356 25.6 24.925V27.7834C25.6 27.9734 25.6755 28.1557 25.8099 28.2901C25.9443 28.4245 26.1266 28.5 26.3166 28.5H26.825L29.325 24.2417C29.2751 24.2197 29.2212 24.2083 29.1666 24.2084Z" fill="#4ACFFF"/>
<path d="M18.8083 25.6417H22.025V28.8584H18.8083V25.6417Z" fill="#00B8F0"/>
<path d="M21.3083 25.6417H19.5166C19.4229 25.6417 19.3301 25.6603 19.2436 25.6964C19.1571 25.7325 19.0787 25.7855 19.0128 25.8521C18.9469 25.9188 18.8949 25.9979 18.8598 26.0848C18.8247 26.1717 18.8072 26.2647 18.8083 26.3584V28.1417C18.8072 28.2354 18.8247 28.3285 18.8598 28.4154C18.8949 28.5023 18.9469 28.5813 19.0128 28.648C19.0787 28.7146 19.1571 28.7676 19.2436 28.8037C19.3301 28.8398 19.4229 28.8584 19.5166 28.8584H19.6916L21.5499 25.6917C21.4737 25.6585 21.3914 25.6415 21.3083 25.6417Z" fill="#4ACFFF"/>
<path d="M25.6 24.2084H29.8917V28.5H25.6V24.2084ZM18.8083 25.6417H22.025V28.8584H18.8083V25.6417Z" stroke="#45413C" stroke-width="0.833333" stroke-linecap="round" stroke-linejoin="round"/>
<path d="M38.8584 34.5833C39.1603 34.3597 39.384 34.0465 39.4974 33.6883C39.6109 33.3301 39.6083 32.9453 39.49 32.5886C39.3717 32.232 39.1439 31.9218 38.8389 31.7024C38.5339 31.4829 38.1674 31.3654 37.7917 31.3666C37.3766 31.3674 36.9751 31.515 36.6584 31.7833C36.5588 31.2992 36.3489 30.8445 36.0452 30.4546C35.7414 30.0647 35.3519 29.7501 34.9069 29.5351C34.4618 29.3201 33.9732 29.2106 33.479 29.215C32.9848 29.2194 32.4982 29.3376 32.0571 29.5605C31.6159 29.7834 31.2321 30.1049 30.9353 30.5002C30.6386 30.8954 30.4369 31.3538 30.346 31.8396C30.255 32.3254 30.2772 32.8256 30.4109 33.3014C30.5445 33.7773 30.7861 34.2159 31.1167 34.5833H38.8584Z" fill="#6DD627"/>
<path d="M33.5 30.6667C34.2426 30.6645 34.9633 30.9187 35.5402 31.3863C36.1171 31.8539 36.515 32.5063 36.6666 33.2333C36.9822 32.962 37.3838 32.8114 37.8 32.8083C38.1509 32.8021 38.4959 32.8991 38.7922 33.0872C39.0885 33.2754 39.323 33.5464 39.4666 33.8667C39.5669 33.6408 39.6208 33.3971 39.625 33.15C39.625 32.9151 39.5786 32.6825 39.4884 32.4656C39.3983 32.2487 39.2662 32.0518 39.0997 31.8861C38.9332 31.7203 38.7356 31.5892 38.5183 31.5C38.301 31.4109 38.0682 31.3656 37.8333 31.3667C37.4182 31.3674 37.0167 31.515 36.7 31.7833C36.5305 31.01 36.0824 30.3259 35.4412 29.8616C34.7999 29.3972 34.0102 29.185 33.2226 29.2653C32.4349 29.3456 31.7043 29.7129 31.17 30.2971C30.6356 30.8813 30.3348 31.6417 30.325 32.4333C30.3251 32.6752 30.3559 32.916 30.4166 33.15C30.5787 32.4509 30.9706 31.8262 31.5296 31.3761C32.0885 30.9259 32.7823 30.6761 33.5 30.6667Z" fill="#9CEB60"/>
<path d="M38.8584 34.5833C39.1603 34.3597 39.384 34.0465 39.4974 33.6883C39.6109 33.3301 39.6083 32.9453 39.49 32.5886C39.3717 32.232 39.1439 31.9218 38.8389 31.7024C38.5339 31.4829 38.1674 31.3654 37.7917 31.3666C37.3766 31.3674 36.9751 31.515 36.6584 31.7833C36.5588 31.2992 36.3489 30.8445 36.0452 30.4546C35.7414 30.0647 35.3519 29.7501 34.9069 29.5351C34.4618 29.3201 33.9732 29.2106 33.479 29.215C32.9848 29.2194 32.4982 29.3376 32.0571 29.5605C31.6159 29.7834 31.2321 30.1049 30.9353 30.5002C30.6386 30.8954 30.4369 31.3538 30.346 31.8396C30.255 32.3254 30.2772 32.8256 30.4109 33.3014C30.5445 33.7773 30.7861 34.2159 31.1167 34.5833H38.8584Z" stroke="#45413C" stroke-width="0.833333" stroke-linecap="round" stroke-linejoin="round"/>
</svg>
