<svg width="26" height="20" viewBox="0 0 26 20" fill="none" xmlns="http://www.w3.org/2000/svg">
<path d="M2 11.9998V8.28584C2 7.7554 2.21071 7.24669 2.58579 6.87162C2.96086 6.49655 3.46957 6.28584 4 6.28584H6.9C7.09552 6.28579 7.28674 6.22842 7.45 6.12084L13.45 2.16484C13.6008 2.06556 13.7756 2.00893 13.9559 2.00097C14.1362 1.99301 14.3154 2.03401 14.4743 2.11962C14.6332 2.20523 14.766 2.33226 14.8585 2.48723C14.9511 2.64219 15 2.81933 15 2.99984V17.2858C15 17.4663 14.9511 17.6435 14.8585 17.7984C14.766 17.9534 14.6332 18.0804 14.4743 18.166C14.3154 18.2517 14.1362 18.2927 13.9559 18.2847C13.7756 18.2767 13.6008 18.2201 13.45 18.1208L7.45 14.1648C7.28674 14.0572 7.09552 13.9999 6.9 13.9998H4C3.46957 13.9998 2.96086 13.7891 2.58579 13.414C2.21071 13.039 2 12.5303 2 11.9998Z" stroke="#F6F6F6" stroke-width="3"/>
<path d="M18.5 5.64282C18.5 5.64282 20 7.14282 20 9.64282C20 12.1428 18.5 13.6428 18.5 13.6428M21.5 2.64282C21.5 2.64282 24 5.14282 24 9.64282C24 14.1428 21.5 16.6428 21.5 16.6428" stroke="#F6F6F6" stroke-width="3" stroke-linecap="round" stroke-linejoin="round"/>
</svg>
