<svg width="48" height="48" viewBox="0 0 48 48" fill="none" xmlns="http://www.w3.org/2000/svg">
<path d="M5.93994 5.93005H42.0599V42.0601H5.93994V5.93005Z" fill="white"/>
<path d="M40.7799 5.93005H7.21994C6.88046 5.93005 6.55489 6.06491 6.31484 6.30496C6.0748 6.545 5.93994 6.87058 5.93994 7.21005V10.4201C5.93994 10.0806 6.0748 9.755 6.31484 9.51496C6.55489 9.27491 6.88046 9.14005 7.21994 9.14005H40.7799C41.1194 9.14005 41.445 9.27491 41.685 9.51496C41.9251 9.755 42.0599 10.0806 42.0599 10.4201V7.21005C42.0599 6.87058 41.9251 6.545 41.685 6.30496C41.445 6.06491 41.1194 5.93005 40.7799 5.93005Z" fill="#F0F0F0"/>
<path opacity="0.15" d="M10.61 45.25C10.61 45.4798 10.9566 45.7074 11.63 45.9197C12.3034 46.132 13.2904 46.3249 14.5348 46.4874C15.7791 46.6499 17.2563 46.7788 18.882 46.8668C20.5078 46.9547 22.2503 47 24.01 47C25.7697 47 27.5122 46.9547 29.1379 46.8668C30.7637 46.7788 32.2409 46.6499 33.4852 46.4874C34.7295 46.3249 35.7166 46.132 36.39 45.9197C37.0634 45.7074 37.41 45.4798 37.41 45.25C37.41 45.0202 37.0634 44.7926 36.39 44.5803C35.7166 44.368 34.7295 44.1751 33.4852 44.0126C32.2409 43.8501 30.7637 43.7212 29.1379 43.6332C27.5122 43.5453 25.7697 43.5 24.01 43.5C22.2503 43.5 20.5078 43.5453 18.882 43.6332C17.2563 43.7212 15.7791 43.8501 14.5348 44.0126C13.2904 44.1751 12.3034 44.368 11.63 44.5803C10.9566 44.7926 10.61 45.0202 10.61 45.25Z" fill="#45413C"/>
<path d="M5.93994 13.2H42.0599V34.81H5.93994V13.2Z" stroke="#E0E0E0" stroke-linecap="round" stroke-linejoin="round"/>
<path d="M5.93994 20.0901H42.0599V27.9201H5.93994V20.0901Z" stroke="#E0E0E0" stroke-linecap="round" stroke-linejoin="round"/>
<path d="M27.73 5.93005V42.0601H20.27V5.93005H27.73Z" stroke="#E0E0E0" stroke-linecap="round" stroke-linejoin="round"/>
<path d="M34.82 5.93005V42.0601H13.17V5.93005H34.82Z" stroke="#E0E0E0" stroke-linecap="round" stroke-linejoin="round"/>
<path d="M21.88 26.6201H26.12C26.2881 26.6201 26.4545 26.6532 26.6098 26.7176C26.7651 26.7819 26.9062 26.8762 27.0251 26.995C27.1439 27.1139 27.2382 27.255 27.3025 27.4103C27.3669 27.5656 27.4 27.732 27.4 27.9001V42.0701H20.6V27.9001C20.6 27.5606 20.7348 27.2351 20.9749 26.995C21.2149 26.755 21.5405 26.6201 21.88 26.6201Z" fill="#FF6242"/>
<path d="M26.12 26.6201H21.88C21.7119 26.6201 21.5454 26.6532 21.3901 26.7176C21.2348 26.7819 21.0937 26.8762 20.9749 26.995C20.856 27.1139 20.7617 27.255 20.6974 27.4103C20.6331 27.5656 20.6 27.732 20.6 27.9001V30.2801C20.6 29.9406 20.7348 29.6151 20.9749 29.375C21.2149 29.135 21.5405 29.0001 21.88 29.0001H26.12C26.2881 29.0001 26.4545 29.0332 26.6098 29.0976C26.7651 29.1619 26.9062 29.2562 27.0251 29.375C27.1439 29.4939 27.2382 29.635 27.3025 29.7903C27.3669 29.9456 27.4 30.112 27.4 30.2801V27.9001C27.4 27.732 27.3669 27.5656 27.3025 27.4103C27.2382 27.255 27.1439 27.1139 27.0251 26.995C26.9062 26.8762 26.7651 26.7819 26.6098 26.7176C26.4545 26.6532 26.2881 26.6201 26.12 26.6201Z" fill="#FF866E"/>
<path d="M21.88 26.6201H26.12C26.2881 26.6201 26.4545 26.6532 26.6098 26.7176C26.7651 26.7819 26.9062 26.8762 27.0251 26.995C27.1439 27.1139 27.2382 27.255 27.3025 27.4103C27.3669 27.5656 27.4 27.732 27.4 27.9001V42.0701H20.6V27.9001C20.6 27.5606 20.7348 27.2351 20.9749 26.995C21.2149 26.755 21.5405 26.6201 21.88 26.6201Z" stroke="#45413C" stroke-linecap="round" stroke-linejoin="round"/>
<path d="M11.08 22H15.32C15.6595 22 15.9851 22.1349 16.2251 22.3749C16.4652 22.6149 16.6 22.9405 16.6 23.28V42.07H9.80005V23.24C9.81044 22.9075 9.94988 22.5921 10.1888 22.3607C10.4277 22.1292 10.7474 21.9998 11.08 22Z" fill="#6DD627"/>
<path d="M15.32 22H11.08C10.7474 21.9998 10.4277 22.1292 10.1888 22.3607C9.94988 22.5921 9.81044 22.9075 9.80005 23.24V25.62C9.80005 25.2805 9.9349 24.9549 10.175 24.7149C10.415 24.4749 10.7406 24.34 11.08 24.34H15.32C15.6595 24.34 15.9851 24.4749 16.2251 24.7149C16.4652 24.9549 16.6 25.2805 16.6 25.62V23.24C16.5897 22.9075 16.4502 22.5921 16.2113 22.3607C15.9724 22.1292 15.6527 21.9998 15.32 22Z" fill="#9CEB60"/>
<path d="M11.08 22H15.32C15.6595 22 15.9851 22.1349 16.2251 22.3749C16.4652 22.6149 16.6 22.9405 16.6 23.28V42.07H9.80005V23.24C9.81044 22.9075 9.94988 22.5921 10.1888 22.3607C10.4277 22.1292 10.7474 21.9998 11.08 22Z" stroke="#45413C" stroke-linecap="round" stroke-linejoin="round"/>
<path d="M32.7101 13.95H36.9501C37.2895 13.95 37.6151 14.0848 37.8551 14.3249C38.0952 14.5649 38.2301 14.8905 38.2301 15.23V42.07H31.4301V15.23C31.4301 14.8905 31.5649 14.5649 31.805 14.3249C32.045 14.0848 32.3706 13.95 32.7101 13.95Z" fill="#00B8F0"/>
<path d="M36.9401 14H32.7101C32.542 14 32.3755 14.0331 32.2202 14.0974C32.0649 14.1618 31.9238 14.256 31.805 14.3749C31.6861 14.4938 31.5918 14.6349 31.5275 14.7902C31.4632 14.9455 31.4301 15.1119 31.4301 15.28V17.6C31.4301 17.4319 31.4632 17.2655 31.5275 17.1102C31.5918 16.9549 31.6861 16.8138 31.805 16.6949C31.9238 16.576 32.0649 16.4818 32.2202 16.4174C32.3755 16.3531 32.542 16.32 32.7101 16.32H36.9401C37.2795 16.32 37.6051 16.4549 37.8451 16.6949C38.0852 16.9349 38.2201 17.2605 38.2201 17.6V15.23C38.2071 14.8993 38.0666 14.5864 37.8279 14.3571C37.5893 14.1277 37.271 13.9997 36.9401 14Z" fill="#4ACFFF"/>
<path d="M32.7101 13.95H36.9501C37.2895 13.95 37.6151 14.0848 37.8551 14.3249C38.0952 14.5649 38.2301 14.8905 38.2301 15.23V42.07H31.4301V15.23C31.4301 14.8905 31.5649 14.5649 31.805 14.3249C32.045 14.0848 32.3706 13.95 32.7101 13.95Z" stroke="#45413C" stroke-linecap="round" stroke-linejoin="round"/>
<path d="M5.93994 5.93005H42.0599V42.0601H5.93994V5.93005Z" stroke="#45413C" stroke-linecap="round" stroke-linejoin="round"/>
</svg>
